<?xml version="1.0" encoding="utf-8"?>
<!-- Generator: Adobe Illustrator 16.0.0, SVG Export Plug-In . SVG Version: 6.00 Build 0)  -->
<!DOCTYPE svg PUBLIC "-//W3C//DTD SVG 1.1//EN" "http://www.w3.org/Graphics/SVG/1.1/DTD/svg11.dtd">
<svg version="1.1" id="Layer_1" xmlns="http://www.w3.org/2000/svg" xmlns:xlink="http://www.w3.org/1999/xlink" x="0px" y="0px"
	 width="927.5px" height="490px" viewBox="0 0 530 280" enable-background="new 0 0 530 280" xml:space="preserve">
<g enable-background="new    ">
	<g>
		<defs>
			<rect id="SVGID_1_" width="530" height="280"/>
		</defs>
		<clipPath id="SVGID_2_">
			<use xlink:href="#SVGID_1_"  overflow="visible"/>
		</clipPath>
		<g clip-path="url(#SVGID_2_)">
			<defs>
				<rect id="SVGID_3_" x="-828" y="-2550" width="1675" height="4145"/>
			</defs>
			<clipPath id="SVGID_4_">
				<use xlink:href="#SVGID_3_"  overflow="visible"/>
			</clipPath>
			<g clip-path="url(#SVGID_4_)">
				<defs>
					<rect id="SVGID_5_" x="-690" y="-2552" width="1400" height="4187"/>
				</defs>
				<clipPath id="SVGID_6_">
					<use xlink:href="#SVGID_5_"  overflow="visible"/>
				</clipPath>
				<g clip-path="url(#SVGID_6_)">
					<defs>
						<rect id="SVGID_7_" width="530" height="280"/>
					</defs>
					<clipPath id="SVGID_8_">
						<use xlink:href="#SVGID_7_"  overflow="visible"/>
					</clipPath>
					<g clip-path="url(#SVGID_8_)" enable-background="new    ">
						<g>
							<defs>
								<rect id="SVGID_9_" width="530" height="280"/>
							</defs>
							<clipPath id="SVGID_10_">
								<use xlink:href="#SVGID_9_"  overflow="visible"/>
							</clipPath>
							<g clip-path="url(#SVGID_10_)">
								<defs>
									<path id="SVGID_11_" d="M526,244c1.334,2.667,2.667,2.667,4,0C528.667,241.333,527.334,241.333,526,244z M530,237
										c-1.333-2.667-2.666-2.667-4,0C527.334,239.667,528.667,239.667,530,237z M519,251c1.334,2.667,2.667,2.667,4,0
										C521.667,248.333,520.334,248.333,519,251z M519,244c1.334,2.667,2.667,2.667,4,0C521.667,241.333,520.334,241.333,519,244
										z M519,237c1.334,2.667,2.667,2.667,4,0C521.667,234.333,520.334,234.333,519,237z M519,230c1.334,2.667,2.667,2.667,4,0
										C521.667,227.333,520.334,227.333,519,230z M512,257c1.334,2.667,2.667,2.667,4,0C514.667,254.333,513.334,254.333,512,257
										z M512,251c1.334,2.667,2.667,2.667,4,0C514.667,248.333,513.334,248.333,512,251z M512,62c1.334,2.667,2.667,2.667,4,0
										C514.667,59.333,513.334,59.333,512,62z M512,56c1.334,2.667,2.667,2.667,4,0C514.667,53.333,513.334,53.333,512,56z
										 M512,49c1.334,2.667,2.667,2.667,4,0C514.667,46.333,513.334,46.333,512,49z M512,42c1.334,2.667,2.667,2.667,4,0
										C514.667,39.333,513.334,39.333,512,42z M512,36c1.334,2.667,2.667,2.667,4,0C514.667,33.333,513.334,33.333,512,36z
										 M505,210c1.334,2.667,2.667,2.667,4,0C507.667,207.333,506.334,207.333,505,210z M505,204c1.334,2.667,2.667,2.667,4,0
										C507.667,201.333,506.334,201.333,505,204z M505,62c1.334,2.667,2.667,2.667,4,0C507.667,59.333,506.334,59.333,505,62z
										 M505,56c1.334,2.667,2.667,2.667,4,0C507.667,53.333,506.334,53.333,505,56z M505,49c1.334,2.667,2.667,2.667,4,0
										C507.667,46.333,506.334,46.333,505,49z M505,42c1.334,2.667,2.667,2.667,4,0C507.667,39.333,506.334,39.333,505,42z
										 M505,36c1.334,2.667,2.667,2.667,4,0C507.667,33.333,506.334,33.333,505,36z M499,204c1.334,2.667,2.667,2.667,4,0
										C501.667,201.333,500.334,201.333,499,204z M499,62c1.334,2.667,2.667,2.667,4,0C501.667,59.333,500.334,59.333,499,62z
										 M499,56c1.334,2.667,2.667,2.667,4,0C501.667,53.333,500.334,53.333,499,56z M499,49c1.334,2.667,2.667,2.667,4,0
										C501.667,46.333,500.334,46.333,499,49z M499,42c1.334,2.667,2.667,2.667,4,0C501.667,39.333,500.334,39.333,499,42z
										 M492,62c1.333,2.667,2.667,2.667,4,0C494.667,59.333,493.333,59.333,492,62z M492,56c1.333,2.667,2.667,2.667,4,0
										C494.667,53.333,493.333,53.333,492,56z M492,49c1.333,2.667,2.667,2.667,4,0C494.667,46.333,493.333,46.333,492,49z
										 M492,42c1.333,2.667,2.667,2.667,4,0C494.667,39.333,493.333,39.333,492,42z M485,237c1.333,2.667,2.666,2.667,4,0
										C487.666,234.333,486.333,234.333,485,237z M485,230c1.333,2.667,2.666,2.667,4,0C487.666,227.333,486.333,227.333,485,230
										z M485,224c1.333,2.667,2.666,2.667,4,0C487.666,221.333,486.333,221.333,485,224z M485,217c1.333,2.667,2.666,2.667,4,0
										C487.666,214.333,486.333,214.333,485,217z M485,69c1.333,2.667,2.666,2.667,4,0C487.666,66.333,486.333,66.333,485,69z
										 M485,62c1.333,2.667,2.666,2.667,4,0C487.666,59.333,486.333,59.333,485,62z M485,56c1.333,2.667,2.666,2.667,4,0
										C487.666,53.333,486.333,53.333,485,56z M485,49c1.333,2.667,2.666,2.667,4,0C487.666,46.333,486.333,46.333,485,49z
										 M485,42c1.333,2.667,2.666,2.667,4,0C487.666,39.333,486.333,39.333,485,42z M478,244c1.333,2.667,2.666,2.667,4,0
										C480.666,241.333,479.333,241.333,478,244z M478,237c1.333,2.667,2.666,2.667,4,0C480.666,234.333,479.333,234.333,478,237
										z M478,230c1.333,2.667,2.666,2.667,4,0C480.666,227.333,479.333,227.333,478,230z M478,224c1.333,2.667,2.666,2.667,4,0
										C480.666,221.333,479.333,221.333,478,224z M478,217c1.333,2.667,2.666,2.667,4,0C480.666,214.333,479.333,214.333,478,217
										z M478,204c1.333,2.667,2.666,2.667,4,0C480.666,201.333,479.333,201.333,478,204z M478,197c1.333,2.667,2.666,2.667,4,0
										C480.666,194.333,479.333,194.333,478,197z M478,190c1.333,2.667,2.666,2.667,4,0C480.666,187.333,479.333,187.333,478,190
										z M478,83c1.333,2.667,2.666,2.667,4,0C480.666,80.333,479.333,80.333,478,83z M478,76c1.333,2.667,2.666,2.667,4,0
										C480.666,73.333,479.333,73.333,478,76z M478,69c1.333,2.667,2.666,2.667,4,0C480.666,66.333,479.333,66.333,478,69z
										 M478,62c1.333,2.667,2.666,2.667,4,0C480.666,59.333,479.333,59.333,478,62z M478,56c1.333,2.667,2.666,2.667,4,0
										C480.666,53.333,479.333,53.333,478,56z M478,49c1.333,2.667,2.666,2.667,4,0C480.666,46.333,479.333,46.333,478,49z
										 M478,42c1.333,2.667,2.666,2.667,4,0C480.666,39.333,479.333,39.333,478,42z M472,237c1.333,2.667,2.666,2.667,4,0
										C474.666,234.333,473.333,234.333,472,237z M472,230c1.333,2.667,2.666,2.667,4,0C474.666,227.333,473.333,227.333,472,230
										z M472,224c1.333,2.667,2.666,2.667,4,0C474.666,221.333,473.333,221.333,472,224z M472,217c1.333,2.667,2.666,2.667,4,0
										C474.666,214.333,473.333,214.333,472,217z M472,210c1.333,2.667,2.666,2.667,4,0C474.666,207.333,473.333,207.333,472,210
										z M472,204c1.333,2.667,2.666,2.667,4,0C474.666,201.333,473.333,201.333,472,204z M472,197c1.333,2.667,2.666,2.667,4,0
										C474.666,194.333,473.333,194.333,472,197z M472,190c1.333,2.667,2.666,2.667,4,0C474.666,187.333,473.333,187.333,472,190
										z M472,62c1.333,2.667,2.666,2.667,4,0C474.666,59.333,473.333,59.333,472,62z M472,56c1.333,2.667,2.666,2.667,4,0
										C474.666,53.333,473.333,53.333,472,56z M472,49c1.333,2.667,2.666,2.667,4,0C474.666,46.333,473.333,46.333,472,49z
										 M472,42c1.333,2.667,2.666,2.667,4,0C474.666,39.333,473.333,39.333,472,42z M465,230c1.333,2.667,2.666,2.667,4,0
										C467.666,227.333,466.333,227.333,465,230z M465,224c1.333,2.667,2.666,2.667,4,0C467.666,221.333,466.333,221.333,465,224
										z M465,217c1.333,2.667,2.666,2.667,4,0C467.666,214.333,466.333,214.333,465,217z M465,210c1.333,2.667,2.666,2.667,4,0
										C467.666,207.333,466.333,207.333,465,210z M465,204c1.333,2.667,2.666,2.667,4,0C467.666,201.333,466.333,201.333,465,204
										z M465,197c1.333,2.667,2.666,2.667,4,0C467.666,194.333,466.333,194.333,465,197z M465,190c1.333,2.667,2.666,2.667,4,0
										C467.666,187.333,466.333,187.333,465,190z M465,183c1.333,2.667,2.666,2.667,4,0C467.666,180.333,466.333,180.333,465,183
										z M465,62c1.333,2.667,2.666,2.667,4,0C467.666,59.333,466.333,59.333,465,62z M465,56c1.333,2.667,2.666,2.667,4,0
										C467.666,53.333,466.333,53.333,465,56z M465,49c1.333,2.667,2.666,2.667,4,0C467.666,46.333,466.333,46.333,465,49z
										 M465,42c1.333,2.667,2.666,2.667,4,0C467.666,39.333,466.333,39.333,465,42z M457,230c1.333,2.667,2.666,2.667,4,0
										C459.666,227.333,458.333,227.333,457,230z M457,224c1.333,2.667,2.666,2.667,4,0C459.666,221.333,458.333,221.333,457,224
										z M457,217c1.333,2.667,2.666,2.667,4,0C459.666,214.333,458.333,214.333,457,217z M457,210c1.333,2.667,2.666,2.667,4,0
										C459.666,207.333,458.333,207.333,457,210z M457,204c1.333,2.667,2.666,2.667,4,0C459.666,201.333,458.333,201.333,457,204
										z M457,183c1.333,2.667,2.666,2.667,4,0C459.666,180.333,458.333,180.333,457,183z M457,89c1.333,2.667,2.666,2.667,4,0
										C459.666,86.333,458.333,86.333,457,89z M457,62c1.333,2.667,2.666,2.667,4,0C459.666,59.333,458.333,59.333,457,62z
										 M457,56c1.333,2.667,2.666,2.667,4,0C459.666,53.333,458.333,53.333,457,56z M457,49c1.333,2.667,2.666,2.667,4,0
										C459.666,46.333,458.333,46.333,457,49z M457,42c1.333,2.667,2.666,2.667,4,0C459.666,39.333,458.333,39.333,457,42z
										 M452,230c1.333,2.667,2.666,2.667,4,0C454.666,227.333,453.333,227.333,452,230z M452,224c1.333,2.667,2.666,2.667,4,0
										C454.666,221.333,453.333,221.333,452,224z M452,217c1.333,2.667,2.666,2.667,4,0C454.666,214.333,453.333,214.333,452,217
										z M452,210c1.333,2.667,2.666,2.667,4,0C454.666,207.333,453.333,207.333,452,210z M452,204c1.333,2.667,2.666,2.667,4,0
										C454.666,201.333,453.333,201.333,452,204z M452,197c1.333,2.667,2.666,2.667,4,0C454.666,194.333,453.333,194.333,452,197
										z M452,183c1.333,2.667,2.666,2.667,4,0C454.666,180.333,453.333,180.333,452,183z M452,110c1.333,2.667,2.666,2.667,4,0
										C454.666,107.333,453.333,107.333,452,110z M452,103c1.333,2.667,2.666,2.667,4,0C454.666,100.333,453.333,100.333,452,103
										z M452,96c1.333,2.667,2.666,2.667,4,0C454.666,93.333,453.333,93.333,452,96z M452,83c1.333,2.667,2.666,2.667,4,0
										C454.666,80.333,453.333,80.333,452,83z M452,76c1.333,2.667,2.666,2.667,4,0C454.666,73.333,453.333,73.333,452,76z
										 M452,69c1.333,2.667,2.666,2.667,4,0C454.666,66.333,453.333,66.333,452,69z M452,62c1.333,2.667,2.666,2.667,4,0
										C454.666,59.333,453.333,59.333,452,62z M452,56c1.333,2.667,2.666,2.667,4,0C454.666,53.333,453.333,53.333,452,56z
										 M452,49c1.333,2.667,2.666,2.667,4,0C454.666,46.333,453.333,46.333,452,49z M452,42c1.333,2.667,2.666,2.667,4,0
										C454.666,39.333,453.333,39.333,452,42z M452,36c1.333,2.667,2.666,2.667,4,0C454.666,33.333,453.333,33.333,452,36z
										 M445,230c1.333,2.667,2.667,2.667,4,0C447.667,227.333,446.333,227.333,445,230z M445,224c1.333,2.667,2.667,2.667,4,0
										C447.667,221.333,446.333,221.333,445,224z M445,217c1.333,2.667,2.667,2.667,4,0C447.667,214.333,446.333,214.333,445,217
										z M445,210c1.333,2.667,2.667,2.667,4,0C447.667,207.333,446.333,207.333,445,210z M445,204c1.333,2.667,2.667,2.667,4,0
										C447.667,201.333,446.333,201.333,445,204z M445,177c1.333,2.667,2.667,2.667,4,0C447.667,174.333,446.333,174.333,445,177
										z M445,116c1.333,2.667,2.667,2.667,4,0C447.667,113.333,446.333,113.333,445,116z M445,110c1.333,2.667,2.667,2.667,4,0
										C447.667,107.333,446.333,107.333,445,110z M445,83c1.333,2.667,2.667,2.667,4,0C447.667,80.333,446.333,80.333,445,83z
										 M445,76c1.333,2.667,2.667,2.667,4,0C447.667,73.333,446.333,73.333,445,76z M445,69c1.333,2.667,2.667,2.667,4,0
										C447.667,66.333,446.333,66.333,445,69z M445,62c1.333,2.667,2.667,2.667,4,0C447.667,59.333,446.333,59.333,445,62z
										 M445,56c1.333,2.667,2.667,2.667,4,0C447.667,53.333,446.333,53.333,445,56z M445,49c1.333,2.667,2.667,2.667,4,0
										C447.667,46.333,446.333,46.333,445,49z M445,42c1.333,2.667,2.667,2.667,4,0C447.667,39.333,446.333,39.333,445,42z
										 M445,36c1.333,2.667,2.667,2.667,4,0C447.667,33.333,446.333,33.333,445,36z M438,230c1.333,2.667,2.667,2.667,4,0
										C440.667,227.333,439.333,227.333,438,230z M438,224c1.333,2.667,2.667,2.667,4,0C440.667,221.333,439.333,221.333,438,224
										z M438,217c1.333,2.667,2.667,2.667,4,0C440.667,214.333,439.333,214.333,438,217z M438,210c1.333,2.667,2.667,2.667,4,0
										C440.667,207.333,439.333,207.333,438,210z M438,204c1.333,2.667,2.667,2.667,4,0C440.667,201.333,439.333,201.333,438,204
										z M438,183c1.333,2.667,2.667,2.667,4,0C440.667,180.333,439.333,180.333,438,183z M438,177c1.333,2.667,2.667,2.667,4,0
										C440.667,174.333,439.333,174.333,438,177z M438,116c1.333,2.667,2.667,2.667,4,0C440.667,113.333,439.333,113.333,438,116
										z M438,89c1.333,2.667,2.667,2.667,4,0C440.667,86.333,439.333,86.333,438,89z M438,83c1.333,2.667,2.667,2.667,4,0
										C440.667,80.333,439.333,80.333,438,83z M438,76c1.333,2.667,2.667,2.667,4,0C440.667,73.333,439.333,73.333,438,76z
										 M438,69c1.333,2.667,2.667,2.667,4,0C440.667,66.333,439.333,66.333,438,69z M438,62c1.333,2.667,2.667,2.667,4,0
										C440.667,59.333,439.333,59.333,438,62z M438,56c1.333,2.667,2.667,2.667,4,0C440.667,53.333,439.333,53.333,438,56z
										 M438,49c1.333,2.667,2.667,2.667,4,0C440.667,46.333,439.333,46.333,438,49z M438,42c1.333,2.667,2.667,2.667,4,0
										C440.667,39.333,439.333,39.333,438,42z M438,36c1.333,2.667,2.667,2.667,4,0C440.667,33.333,439.333,33.333,438,36z
										 M430,230c1.333,2.667,2.667,2.667,4,0C432.667,227.333,431.333,227.333,430,230z M430,224c1.333,2.667,2.667,2.667,4,0
										C432.667,221.333,431.333,221.333,430,224z M430,217c1.333,2.667,2.667,2.667,4,0C432.667,214.333,431.333,214.333,430,217
										z M430,210c1.333,2.667,2.667,2.667,4,0C432.667,207.333,431.333,207.333,430,210z M430,183c1.333,2.667,2.667,2.667,4,0
										C432.667,180.333,431.333,180.333,430,183z M430,177c1.333,2.667,2.667,2.667,4,0C432.667,174.333,431.333,174.333,430,177
										z M430,157c1.333,2.667,2.667,2.667,4,0C432.667,154.333,431.333,154.333,430,157z M430,103c1.333,2.667,2.667,2.667,4,0
										C432.667,100.333,431.333,100.333,430,103z M430,96c1.333,2.667,2.667,2.667,4,0C432.667,93.333,431.333,93.333,430,96z
										 M430,89c1.333,2.667,2.667,2.667,4,0C432.667,86.333,431.333,86.333,430,89z M430,83c1.333,2.667,2.667,2.667,4,0
										C432.667,80.333,431.333,80.333,430,83z M430,76c1.333,2.667,2.667,2.667,4,0C432.667,73.333,431.333,73.333,430,76z
										 M430,69c1.333,2.667,2.667,2.667,4,0C432.667,66.333,431.333,66.333,430,69z M430,62c1.333,2.667,2.667,2.667,4,0
										C432.667,59.333,431.333,59.333,430,62z M430,56c1.333,2.667,2.667,2.667,4,0C432.667,53.333,431.333,53.333,430,56z
										 M430,49c1.333,2.667,2.667,2.667,4,0C432.667,46.333,431.333,46.333,430,49z M430,42c1.333,2.667,2.667,2.667,4,0
										C432.667,39.333,431.333,39.333,430,42z M430,36c1.333,2.667,2.667,2.667,4,0C432.667,33.333,431.333,33.333,430,36z
										 M425,190c1.332,2.667,2.666,2.667,4,0C427.666,187.333,426.332,187.333,425,190z M425,183c1.332,2.667,2.666,2.667,4,0
										C427.666,180.333,426.332,180.333,425,183z M425,177c1.332,2.667,2.666,2.667,4,0C427.666,174.333,426.332,174.333,425,177
										z M425,163c1.332,2.667,2.666,2.667,4,0C427.666,160.333,426.332,160.333,425,163z M425,157c1.332,2.667,2.666,2.667,4,0
										C427.666,154.333,426.332,154.333,425,157z M425,150c1.332,2.667,2.666,2.667,4,0C427.666,147.333,426.332,147.333,425,150
										z M425,143c1.332,2.667,2.666,2.667,4,0C427.666,140.333,426.332,140.333,425,143z M425,103c1.332,2.667,2.666,2.667,4,0
										C427.666,100.333,426.332,100.333,425,103z M425,96c1.332,2.667,2.666,2.667,4,0C427.666,93.333,426.332,93.333,425,96z
										 M425,89c1.332,2.667,2.666,2.667,4,0C427.666,86.333,426.332,86.333,425,89z M425,83c1.332,2.667,2.666,2.667,4,0
										C427.666,80.333,426.332,80.333,425,83z M425,76c1.332,2.667,2.666,2.667,4,0C427.666,73.333,426.332,73.333,425,76z
										 M425,69c1.332,2.667,2.666,2.667,4,0C427.666,66.333,426.332,66.333,425,69z M425,62c1.332,2.667,2.666,2.667,4,0
										C427.666,59.333,426.332,59.333,425,62z M425,56c1.332,2.667,2.666,2.667,4,0C427.666,53.333,426.332,53.333,425,56z
										 M425,49c1.332,2.667,2.666,2.667,4,0C427.666,46.333,426.332,46.333,425,49z M425,42c1.332,2.667,2.666,2.667,4,0
										C427.666,39.333,426.332,39.333,425,42z M425,36c1.332,2.667,2.666,2.667,4,0C427.666,33.333,426.332,33.333,425,36z
										 M418,190c1.333,2.667,2.666,2.667,4,0C420.666,187.333,419.333,187.333,418,190z M418,183c1.333,2.667,2.666,2.667,4,0
										C420.666,180.333,419.333,180.333,418,183z M418,163c1.333,2.667,2.666,2.667,4,0C420.666,160.333,419.333,160.333,418,163
										z M418,157c1.333,2.667,2.666,2.667,4,0C420.666,154.333,419.333,154.333,418,157z M418,130c1.333,2.667,2.666,2.667,4,0
										C420.666,127.333,419.333,127.333,418,130z M418,123c1.333,2.667,2.666,2.667,4,0C420.666,120.333,419.333,120.333,418,123
										z M418,116c1.333,2.667,2.666,2.667,4,0C420.666,113.333,419.333,113.333,418,116z M418,110c1.333,2.667,2.666,2.667,4,0
										C420.666,107.333,419.333,107.333,418,110z M418,103c1.333,2.667,2.666,2.667,4,0C420.666,100.333,419.333,100.333,418,103
										z M418,96c1.333,2.667,2.666,2.667,4,0C420.666,93.333,419.333,93.333,418,96z M418,89c1.333,2.667,2.666,2.667,4,0
										C420.666,86.333,419.333,86.333,418,89z M418,83c1.333,2.667,2.666,2.667,4,0C420.666,80.333,419.333,80.333,418,83z
										 M418,76c1.333,2.667,2.666,2.667,4,0C420.666,73.333,419.333,73.333,418,76z M418,69c1.333,2.667,2.666,2.667,4,0
										C420.666,66.333,419.333,66.333,418,69z M418,62c1.333,2.667,2.666,2.667,4,0C420.666,59.333,419.333,59.333,418,62z
										 M418,56c1.333,2.667,2.666,2.667,4,0C420.666,53.333,419.333,53.333,418,56z M418,49c1.333,2.667,2.666,2.667,4,0
										C420.666,46.333,419.333,46.333,418,49z M418,42c1.333,2.667,2.666,2.667,4,0C420.666,39.333,419.333,39.333,418,42z
										 M418,36c1.333,2.667,2.666,2.667,4,0C420.666,33.333,419.333,33.333,418,36z M418,29c1.333,2.667,2.666,2.667,4,0
										C420.666,26.333,419.333,26.333,418,29z M411,183c1.333,2.667,2.666,2.667,4,0C413.666,180.333,412.333,180.333,411,183z
										 M411,177c1.333,2.667,2.666,2.667,4,0C413.666,174.333,412.333,174.333,411,177z M411,163c1.333,2.667,2.666,2.667,4,0
										C413.666,160.333,412.333,160.333,411,163z M411,157c1.333,2.667,2.666,2.667,4,0C413.666,154.333,412.333,154.333,411,157
										z M411,130c1.333,2.667,2.666,2.667,4,0C413.666,127.333,412.333,127.333,411,130z M411,123c1.333,2.667,2.666,2.667,4,0
										C413.666,120.333,412.333,120.333,411,123z M411,116c1.333,2.667,2.666,2.667,4,0C413.666,113.333,412.333,113.333,411,116
										z M411,110c1.333,2.667,2.666,2.667,4,0C413.666,107.333,412.333,107.333,411,110z M411,103c1.333,2.667,2.666,2.667,4,0
										C413.666,100.333,412.333,100.333,411,103z M411,96c1.333,2.667,2.666,2.667,4,0C413.666,93.333,412.333,93.333,411,96z
										 M411,89c1.333,2.667,2.666,2.667,4,0C413.666,86.333,412.333,86.333,411,89z M411,83c1.333,2.667,2.666,2.667,4,0
										C413.666,80.333,412.333,80.333,411,83z M411,76c1.333,2.667,2.666,2.667,4,0C413.666,73.333,412.333,73.333,411,76z
										 M411,69c1.333,2.667,2.666,2.667,4,0C413.666,66.333,412.333,66.333,411,69z M411,62c1.333,2.667,2.666,2.667,4,0
										C413.666,59.333,412.333,59.333,411,62z M411,56c1.333,2.667,2.666,2.667,4,0C413.666,53.333,412.333,53.333,411,56z
										 M411,49c1.333,2.667,2.666,2.667,4,0C413.666,46.333,412.333,46.333,411,49z M411,42c1.333,2.667,2.666,2.667,4,0
										C413.666,39.333,412.333,39.333,411,42z M411,36c1.333,2.667,2.666,2.667,4,0C413.666,33.333,412.333,33.333,411,36z
										 M411,29c1.333,2.667,2.666,2.667,4,0C413.666,26.333,412.333,26.333,411,29z M411,22c1.333,2.667,2.666,2.667,4,0
										C413.666,19.333,412.333,19.333,411,22z M403,150c1.334,2.667,2.667,2.667,4,0C405.667,147.333,404.334,147.333,403,150z
										 M403,143c1.334,2.667,2.667,2.667,4,0C405.667,140.333,404.334,140.333,403,143z M403,136c1.334,2.667,2.667,2.667,4,0
										C405.667,133.333,404.334,133.333,403,136z M403,130c1.334,2.667,2.667,2.667,4,0C405.667,127.333,404.334,127.333,403,130
										z M403,116c1.334,2.667,2.667,2.667,4,0C405.667,113.333,404.334,113.333,403,116z M403,110c1.334,2.667,2.667,2.667,4,0
										C405.667,107.333,404.334,107.333,403,110z M403,103c1.334,2.667,2.667,2.667,4,0C405.667,100.333,404.334,100.333,403,103
										z M403,96c1.334,2.667,2.667,2.667,4,0C405.667,93.333,404.334,93.333,403,96z M403,89c1.334,2.667,2.667,2.667,4,0
										C405.667,86.333,404.334,86.333,403,89z M403,83c1.334,2.667,2.667,2.667,4,0C405.667,80.333,404.334,80.333,403,83z
										 M403,76c1.334,2.667,2.667,2.667,4,0C405.667,73.333,404.334,73.333,403,76z M403,69c1.334,2.667,2.667,2.667,4,0
										C405.667,66.333,404.334,66.333,403,69z M403,62c1.334,2.667,2.667,2.667,4,0C405.667,59.333,404.334,59.333,403,62z
										 M403,56c1.334,2.667,2.667,2.667,4,0C405.667,53.333,404.334,53.333,403,56z M403,49c1.334,2.667,2.667,2.667,4,0
										C405.667,46.333,404.334,46.333,403,49z M403,42c1.334,2.667,2.667,2.667,4,0C405.667,39.333,404.334,39.333,403,42z
										 M403,36c1.334,2.667,2.667,2.667,4,0C405.667,33.333,404.334,33.333,403,36z M403,29c1.334,2.667,2.667,2.667,4,0
										C405.667,26.333,404.334,26.333,403,29z M403,22c1.334,2.667,2.667,2.667,4,0C405.667,19.333,404.334,19.333,403,22z
										 M398,150c1.334,2.667,2.667,2.667,4,0C400.667,147.333,399.334,147.333,398,150z M398,143c1.334,2.667,2.667,2.667,4,0
										C400.667,140.333,399.334,140.333,398,143z M398,136c1.334,2.667,2.667,2.667,4,0C400.667,133.333,399.334,133.333,398,136
										z M398,130c1.334,2.667,2.667,2.667,4,0C400.667,127.333,399.334,127.333,398,130z M398,116c1.334,2.667,2.667,2.667,4,0
										C400.667,113.333,399.334,113.333,398,116z M398,110c1.334,2.667,2.667,2.667,4,0C400.667,107.333,399.334,107.333,398,110
										z M398,103c1.334,2.667,2.667,2.667,4,0C400.667,100.333,399.334,100.333,398,103z M398,96c1.334,2.667,2.667,2.667,4,0
										C400.667,93.333,399.334,93.333,398,96z M398,89c1.334,2.667,2.667,2.667,4,0C400.667,86.333,399.334,86.333,398,89z
										 M398,83c1.334,2.667,2.667,2.667,4,0C400.667,80.333,399.334,80.333,398,83z M398,76c1.334,2.667,2.667,2.667,4,0
										C400.667,73.333,399.334,73.333,398,76z M398,69c1.334,2.667,2.667,2.667,4,0C400.667,66.333,399.334,66.333,398,69z
										 M398,62c1.334,2.667,2.667,2.667,4,0C400.667,59.333,399.334,59.333,398,62z M398,56c1.334,2.667,2.667,2.667,4,0
										C400.667,53.333,399.334,53.333,398,56z M398,49c1.334,2.667,2.667,2.667,4,0C400.667,46.333,399.334,46.333,398,49z
										 M398,42c1.334,2.667,2.667,2.667,4,0C400.667,39.333,399.334,39.333,398,42z M398,36c1.334,2.667,2.667,2.667,4,0
										C400.667,33.333,399.334,33.333,398,36z M398,29c1.334,2.667,2.667,2.667,4,0C400.667,26.333,399.334,26.333,398,29z
										 M398,22c1.334,2.667,2.667,2.667,4,0C400.667,19.333,399.334,19.333,398,22z M391,163c1.334,2.667,2.667,2.667,4,0
										C393.667,160.333,392.334,160.333,391,163z M391,157c1.334,2.667,2.667,2.667,4,0C393.667,154.333,392.334,154.333,391,157
										z M391,150c1.334,2.667,2.667,2.667,4,0C393.667,147.333,392.334,147.333,391,150z M391,143c1.334,2.667,2.667,2.667,4,0
										C393.667,140.333,392.334,140.333,391,143z M391,136c1.334,2.667,2.667,2.667,4,0C393.667,133.333,392.334,133.333,391,136
										z M391,130c1.334,2.667,2.667,2.667,4,0C393.667,127.333,392.334,127.333,391,130z M391,123c1.334,2.667,2.667,2.667,4,0
										C393.667,120.333,392.334,120.333,391,123z M391,116c1.334,2.667,2.667,2.667,4,0C393.667,113.333,392.334,113.333,391,116
										z M391,110c1.334,2.667,2.667,2.667,4,0C393.667,107.333,392.334,107.333,391,110z M391,103c1.334,2.667,2.667,2.667,4,0
										C393.667,100.333,392.334,100.333,391,103z M391,96c1.334,2.667,2.667,2.667,4,0C393.667,93.333,392.334,93.333,391,96z
										 M391,89c1.334,2.667,2.667,2.667,4,0C393.667,86.333,392.334,86.333,391,89z M391,83c1.334,2.667,2.667,2.667,4,0
										C393.667,80.333,392.334,80.333,391,83z M391,76c1.334,2.667,2.667,2.667,4,0C393.667,73.333,392.334,73.333,391,76z
										 M391,69c1.334,2.667,2.667,2.667,4,0C393.667,66.333,392.334,66.333,391,69z M391,62c1.334,2.667,2.667,2.667,4,0
										C393.667,59.333,392.334,59.333,391,62z M391,56c1.334,2.667,2.667,2.667,4,0C393.667,53.333,392.334,53.333,391,56z
										 M391,49c1.334,2.667,2.667,2.667,4,0C393.667,46.333,392.334,46.333,391,49z M391,42c1.334,2.667,2.667,2.667,4,0
										C393.667,39.333,392.334,39.333,391,42z M391,36c1.334,2.667,2.667,2.667,4,0C393.667,33.333,392.334,33.333,391,36z
										 M391,29c1.334,2.667,2.667,2.667,4,0C393.667,26.333,392.334,26.333,391,29z M391,22c1.334,2.667,2.667,2.667,4,0
										C393.667,19.333,392.334,19.333,391,22z M384,143c1.334,2.667,2.667,2.667,4,0C386.667,140.333,385.334,140.333,384,143z
										 M384,136c1.334,2.667,2.667,2.667,4,0C386.667,133.333,385.334,133.333,384,136z M384,130c1.334,2.667,2.667,2.667,4,0
										C386.667,127.333,385.334,127.333,384,130z M384,123c1.334,2.667,2.667,2.667,4,0C386.667,120.333,385.334,120.333,384,123
										z M384,116c1.334,2.667,2.667,2.667,4,0C386.667,113.333,385.334,113.333,384,116z M384,110c1.334,2.667,2.667,2.667,4,0
										C386.667,107.333,385.334,107.333,384,110z M384,103c1.334,2.667,2.667,2.667,4,0C386.667,100.333,385.334,100.333,384,103
										z M384,96c1.334,2.667,2.667,2.667,4,0C386.667,93.333,385.334,93.333,384,96z M384,89c1.334,2.667,2.667,2.667,4,0
										C386.667,86.333,385.334,86.333,384,89z M384,83c1.334,2.667,2.667,2.667,4,0C386.667,80.333,385.334,80.333,384,83z
										 M384,76c1.334,2.667,2.667,2.667,4,0C386.667,73.333,385.334,73.333,384,76z M384,69c1.334,2.667,2.667,2.667,4,0
										C386.667,66.333,385.334,66.333,384,69z M384,62c1.334,2.667,2.667,2.667,4,0C386.667,59.333,385.334,59.333,384,62z
										 M384,56c1.334,2.667,2.667,2.667,4,0C386.667,53.333,385.334,53.333,384,56z M384,49c1.334,2.667,2.667,2.667,4,0
										C386.667,46.333,385.334,46.333,384,49z M384,42c1.334,2.667,2.667,2.667,4,0C386.667,39.333,385.334,39.333,384,42z
										 M384,36c1.334,2.667,2.667,2.667,4,0C386.667,33.333,385.334,33.333,384,36z M384,29c1.334,2.667,2.667,2.667,4,0
										C386.667,26.333,385.334,26.333,384,29z M384,22c1.334,2.667,2.667,2.667,4,0C386.667,19.333,385.334,19.333,384,22z
										 M378,136c1.334,2.667,2.667,2.667,4,0C380.667,133.333,379.334,133.333,378,136z M378,130c1.334,2.667,2.667,2.667,4,0
										C380.667,127.333,379.334,127.333,378,130z M378,123c1.334,2.667,2.667,2.667,4,0C380.667,120.333,379.334,120.333,378,123
										z M378,116c1.334,2.667,2.667,2.667,4,0C380.667,113.333,379.334,113.333,378,116z M378,110c1.334,2.667,2.667,2.667,4,0
										C380.667,107.333,379.334,107.333,378,110z M378,103c1.334,2.667,2.667,2.667,4,0C380.667,100.333,379.334,100.333,378,103
										z M378,96c1.334,2.667,2.667,2.667,4,0C380.667,93.333,379.334,93.333,378,96z M378,89c1.334,2.667,2.667,2.667,4,0
										C380.667,86.333,379.334,86.333,378,89z M378,83c1.334,2.667,2.667,2.667,4,0C380.667,80.333,379.334,80.333,378,83z
										 M378,76c1.334,2.667,2.667,2.667,4,0C380.667,73.333,379.334,73.333,378,76z M378,69c1.334,2.667,2.667,2.667,4,0
										C380.667,66.333,379.334,66.333,378,69z M378,62c1.334,2.667,2.667,2.667,4,0C380.667,59.333,379.334,59.333,378,62z
										 M378,56c1.334,2.667,2.667,2.667,4,0C380.667,53.333,379.334,53.333,378,56z M378,49c1.334,2.667,2.667,2.667,4,0
										C380.667,46.333,379.334,46.333,378,49z M378,42c1.334,2.667,2.667,2.667,4,0C380.667,39.333,379.334,39.333,378,42z
										 M378,36c1.334,2.667,2.667,2.667,4,0C380.667,33.333,379.334,33.333,378,36z M378,29c1.334,2.667,2.667,2.667,4,0
										C380.667,26.333,379.334,26.333,378,29z M378,22c1.334,2.667,2.667,2.667,4,0C380.667,19.333,379.334,19.333,378,22z
										 M370,136c1.334,2.667,2.666,2.667,4,0C372.666,133.333,371.334,133.333,370,136z M370,130c1.334,2.667,2.666,2.667,4,0
										C372.666,127.333,371.334,127.333,370,130z M370,123c1.334,2.667,2.666,2.667,4,0C372.666,120.333,371.334,120.333,370,123
										z M370,116c1.334,2.667,2.666,2.667,4,0C372.666,113.333,371.334,113.333,370,116z M370,110c1.334,2.667,2.666,2.667,4,0
										C372.666,107.333,371.334,107.333,370,110z M370,103c1.334,2.667,2.666,2.667,4,0C372.666,100.333,371.334,100.333,370,103
										z M370,96c1.334,2.667,2.666,2.667,4,0C372.666,93.333,371.334,93.333,370,96z M370,89c1.334,2.667,2.666,2.667,4,0
										C372.666,86.333,371.334,86.333,370,89z M370,83c1.334,2.667,2.666,2.667,4,0C372.666,80.333,371.334,80.333,370,83z
										 M370,76c1.334,2.667,2.666,2.667,4,0C372.666,73.333,371.334,73.333,370,76z M370,69c1.334,2.667,2.666,2.667,4,0
										C372.666,66.333,371.334,66.333,370,69z M370,62c1.334,2.667,2.666,2.667,4,0C372.666,59.333,371.334,59.333,370,62z
										 M370,56c1.334,2.667,2.666,2.667,4,0C372.666,53.333,371.334,53.333,370,56z M370,49c1.334,2.667,2.666,2.667,4,0
										C372.666,46.333,371.334,46.333,370,49z M370,42c1.334,2.667,2.666,2.667,4,0C372.666,39.333,371.334,39.333,370,42z
										 M370,36c1.334,2.667,2.666,2.667,4,0C372.666,33.333,371.334,33.333,370,36z M370,29c1.334,2.667,2.666,2.667,4,0
										C372.666,26.333,371.334,26.333,370,29z M370,22c1.334,2.667,2.666,2.667,4,0C372.666,19.333,371.334,19.333,370,22z
										 M364,157c1.333,2.667,2.666,2.667,4,0C366.666,154.333,365.333,154.333,364,157z M364,143c1.333,2.667,2.666,2.667,4,0
										C366.666,140.333,365.333,140.333,364,143z M364,136c1.333,2.667,2.666,2.667,4,0C366.666,133.333,365.333,133.333,364,136
										z M364,130c1.333,2.667,2.666,2.667,4,0C366.666,127.333,365.333,127.333,364,130z M364,123c1.333,2.667,2.666,2.667,4,0
										C366.666,120.333,365.333,120.333,364,123z M364,116c1.333,2.667,2.666,2.667,4,0C366.666,113.333,365.333,113.333,364,116
										z M364,110c1.333,2.667,2.666,2.667,4,0C366.666,107.333,365.333,107.333,364,110z M364,103c1.333,2.667,2.666,2.667,4,0
										C366.666,100.333,365.333,100.333,364,103z M364,96c1.333,2.667,2.666,2.667,4,0C366.666,93.333,365.333,93.333,364,96z
										 M364,89c1.333,2.667,2.666,2.667,4,0C366.666,86.333,365.333,86.333,364,89z M364,83c1.333,2.667,2.666,2.667,4,0
										C366.666,80.333,365.333,80.333,364,83z M364,76c1.333,2.667,2.666,2.667,4,0C366.666,73.333,365.333,73.333,364,76z
										 M364,69c1.333,2.667,2.666,2.667,4,0C366.666,66.333,365.333,66.333,364,69z M364,62c1.333,2.667,2.666,2.667,4,0
										C366.666,59.333,365.333,59.333,364,62z M364,56c1.333,2.667,2.666,2.667,4,0C366.666,53.333,365.333,53.333,364,56z
										 M364,49c1.333,2.667,2.666,2.667,4,0C366.666,46.333,365.333,46.333,364,49z M364,42c1.333,2.667,2.666,2.667,4,0
										C366.666,39.333,365.333,39.333,364,42z M364,36c1.333,2.667,2.666,2.667,4,0C366.666,33.333,365.333,33.333,364,36z
										 M364,29c1.333,2.667,2.666,2.667,4,0C366.666,26.333,365.333,26.333,364,29z M364,22c1.333,2.667,2.666,2.667,4,0
										C366.666,19.333,365.333,19.333,364,22z M357,157c1.333,2.667,2.666,2.667,4,0C359.666,154.333,358.333,154.333,357,157z
										 M357,150c1.333,2.667,2.666,2.667,4,0C359.666,147.333,358.333,147.333,357,150z M357,143c1.333,2.667,2.666,2.667,4,0
										C359.666,140.333,358.333,140.333,357,143z M357,136c1.333,2.667,2.666,2.667,4,0C359.666,133.333,358.333,133.333,357,136
										z M357,130c1.333,2.667,2.666,2.667,4,0C359.666,127.333,358.333,127.333,357,130z M357,123c1.333,2.667,2.666,2.667,4,0
										C359.666,120.333,358.333,120.333,357,123z M357,116c1.333,2.667,2.666,2.667,4,0C359.666,113.333,358.333,113.333,357,116
										z M357,110c1.333,2.667,2.666,2.667,4,0C359.666,107.333,358.333,107.333,357,110z M357,103c1.333,2.667,2.666,2.667,4,0
										C359.666,100.333,358.333,100.333,357,103z M357,96c1.333,2.667,2.666,2.667,4,0C359.666,93.333,358.333,93.333,357,96z
										 M357,89c1.333,2.667,2.666,2.667,4,0C359.666,86.333,358.333,86.333,357,89z M357,83c1.333,2.667,2.666,2.667,4,0
										C359.666,80.333,358.333,80.333,357,83z M357,76c1.333,2.667,2.666,2.667,4,0C359.666,73.333,358.333,73.333,357,76z
										 M357,69c1.333,2.667,2.666,2.667,4,0C359.666,66.333,358.333,66.333,357,69z M357,62c1.333,2.667,2.666,2.667,4,0
										C359.666,59.333,358.333,59.333,357,62z M357,56c1.333,2.667,2.666,2.667,4,0C359.666,53.333,358.333,53.333,357,56z
										 M357,49c1.333,2.667,2.666,2.667,4,0C359.666,46.333,358.333,46.333,357,49z M357,42c1.333,2.667,2.666,2.667,4,0
										C359.666,39.333,358.333,39.333,357,42z M357,36c1.333,2.667,2.666,2.667,4,0C359.666,33.333,358.333,33.333,357,36z
										 M351,143c1.334,2.667,2.667,2.667,4,0C353.667,140.333,352.334,140.333,351,143z M351,136c1.334,2.667,2.667,2.667,4,0
										C353.667,133.333,352.334,133.333,351,136z M351,130c1.334,2.667,2.667,2.667,4,0C353.667,127.333,352.334,127.333,351,130
										z M351,123c1.334,2.667,2.667,2.667,4,0C353.667,120.333,352.334,120.333,351,123z M351,116c1.334,2.667,2.667,2.667,4,0
										C353.667,113.333,352.334,113.333,351,116z M351,110c1.334,2.667,2.667,2.667,4,0C353.667,107.333,352.334,107.333,351,110
										z M351,103c1.334,2.667,2.667,2.667,4,0C353.667,100.333,352.334,100.333,351,103z M351,96c1.334,2.667,2.667,2.667,4,0
										C353.667,93.333,352.334,93.333,351,96z M351,89c1.334,2.667,2.667,2.667,4,0C353.667,86.333,352.334,86.333,351,89z
										 M351,83c1.334,2.667,2.667,2.667,4,0C353.667,80.333,352.334,80.333,351,83z M351,76c1.334,2.667,2.667,2.667,4,0
										C353.667,73.333,352.334,73.333,351,76z M351,69c1.334,2.667,2.667,2.667,4,0C353.667,66.333,352.334,66.333,351,69z
										 M351,62c1.334,2.667,2.667,2.667,4,0C353.667,59.333,352.334,59.333,351,62z M351,56c1.334,2.667,2.667,2.667,4,0
										C353.667,53.333,352.334,53.333,351,56z M351,49c1.334,2.667,2.667,2.667,4,0C353.667,46.333,352.334,46.333,351,49z
										 M351,42c1.334,2.667,2.667,2.667,4,0C353.667,39.333,352.334,39.333,351,42z M351,36c1.334,2.667,2.667,2.667,4,0
										C353.667,33.333,352.334,33.333,351,36z M343,136c1.334,2.667,2.667,2.667,4,0C345.667,133.333,344.334,133.333,343,136z
										 M343,130c1.334,2.667,2.667,2.667,4,0C345.667,127.333,344.334,127.333,343,130z M343,123c1.334,2.667,2.667,2.667,4,0
										C345.667,120.333,344.334,120.333,343,123z M343,116c1.334,2.667,2.667,2.667,4,0C345.667,113.333,344.334,113.333,343,116
										z M343,110c1.334,2.667,2.667,2.667,4,0C345.667,107.333,344.334,107.333,343,110z M343,103c1.334,2.667,2.667,2.667,4,0
										C345.667,100.333,344.334,100.333,343,103z M343,96c1.334,2.667,2.667,2.667,4,0C345.667,93.333,344.334,93.333,343,96z
										 M343,89c1.334,2.667,2.667,2.667,4,0C345.667,86.333,344.334,86.333,343,89z M343,83c1.334,2.667,2.667,2.667,4,0
										C345.667,80.333,344.334,80.333,343,83z M343,76c1.334,2.667,2.667,2.667,4,0C345.667,73.333,344.334,73.333,343,76z
										 M343,69c1.334,2.667,2.667,2.667,4,0C345.667,66.333,344.334,66.333,343,69z M343,62c1.334,2.667,2.667,2.667,4,0
										C345.667,59.333,344.334,59.333,343,62z M343,56c1.334,2.667,2.667,2.667,4,0C345.667,53.333,344.334,53.333,343,56z
										 M343,49c1.334,2.667,2.667,2.667,4,0C345.667,46.333,344.334,46.333,343,49z M343,42c1.334,2.667,2.667,2.667,4,0
										C345.667,39.333,344.334,39.333,343,42z M343,36c1.334,2.667,2.667,2.667,4,0C345.667,33.333,344.334,33.333,343,36z
										 M337,130c1.334,2.667,2.667,2.667,4,0C339.667,127.333,338.334,127.333,337,130z M337,123c1.334,2.667,2.667,2.667,4,0
										C339.667,120.333,338.334,120.333,337,123z M337,116c1.334,2.667,2.667,2.667,4,0C339.667,113.333,338.334,113.333,337,116
										z M337,110c1.334,2.667,2.667,2.667,4,0C339.667,107.333,338.334,107.333,337,110z M337,103c1.334,2.667,2.667,2.667,4,0
										C339.667,100.333,338.334,100.333,337,103z M337,96c1.334,2.667,2.667,2.667,4,0C339.667,93.333,338.334,93.333,337,96z
										 M337,89c1.334,2.667,2.667,2.667,4,0C339.667,86.333,338.334,86.333,337,89z M337,83c1.334,2.667,2.667,2.667,4,0
										C339.667,80.333,338.334,80.333,337,83z M337,76c1.334,2.667,2.667,2.667,4,0C339.667,73.333,338.334,73.333,337,76z
										 M337,69c1.334,2.667,2.667,2.667,4,0C339.667,66.333,338.334,66.333,337,69z M337,62c1.334,2.667,2.667,2.667,4,0
										C339.667,59.333,338.334,59.333,337,62z M337,56c1.334,2.667,2.667,2.667,4,0C339.667,53.333,338.334,53.333,337,56z
										 M337,49c1.334,2.667,2.667,2.667,4,0C339.667,46.333,338.334,46.333,337,49z M337,22c1.334,2.667,2.667,2.667,4,0
										C339.667,19.333,338.334,19.333,337,22z M331,130c1.334,2.667,2.666,2.667,4,0C333.666,127.333,332.334,127.333,331,130z
										 M331,123c1.334,2.667,2.666,2.667,4,0C333.666,120.333,332.334,120.333,331,123z M331,116c1.334,2.667,2.666,2.667,4,0
										C333.666,113.333,332.334,113.333,331,116z M331,110c1.334,2.667,2.666,2.667,4,0C333.666,107.333,332.334,107.333,331,110
										z M331,103c1.334,2.667,2.666,2.667,4,0C333.666,100.333,332.334,100.333,331,103z M331,96c1.334,2.667,2.666,2.667,4,0
										C333.666,93.333,332.334,93.333,331,96z M331,89c1.334,2.667,2.666,2.667,4,0C333.666,86.333,332.334,86.333,331,89z
										 M331,83c1.334,2.667,2.666,2.667,4,0C333.666,80.333,332.334,80.333,331,83z M331,76c1.334,2.667,2.666,2.667,4,0
										C333.666,73.333,332.334,73.333,331,76z M331,69c1.334,2.667,2.666,2.667,4,0C333.666,66.333,332.334,66.333,331,69z
										 M331,62c1.334,2.667,2.666,2.667,4,0C333.666,59.333,332.334,59.333,331,62z M331,56c1.334,2.667,2.666,2.667,4,0
										C333.666,53.333,332.334,53.333,331,56z M331,49c1.334,2.667,2.666,2.667,4,0C333.666,46.333,332.334,46.333,331,49z
										 M331,29c1.334,2.667,2.666,2.667,4,0C333.666,26.333,332.334,26.333,331,29z M331,22c1.334,2.667,2.666,2.667,4,0
										C333.666,19.333,332.334,19.333,331,22z M324,136c1.334,2.667,2.666,2.667,4,0C326.666,133.333,325.334,133.333,324,136z
										 M324,130c1.334,2.667,2.666,2.667,4,0C326.666,127.333,325.334,127.333,324,130z M324,123c1.334,2.667,2.666,2.667,4,0
										C326.666,120.333,325.334,120.333,324,123z M324,116c1.334,2.667,2.666,2.667,4,0C326.666,113.333,325.334,113.333,324,116
										z M324,110c1.334,2.667,2.666,2.667,4,0C326.666,107.333,325.334,107.333,324,110z M324,103c1.334,2.667,2.666,2.667,4,0
										C326.666,100.333,325.334,100.333,324,103z M324,96c1.334,2.667,2.666,2.667,4,0C326.666,93.333,325.334,93.333,324,96z
										 M324,89c1.334,2.667,2.666,2.667,4,0C326.666,86.333,325.334,86.333,324,89z M324,83c1.334,2.667,2.666,2.667,4,0
										C326.666,80.333,325.334,80.333,324,83z M324,76c1.334,2.667,2.666,2.667,4,0C326.666,73.333,325.334,73.333,324,76z
										 M324,69c1.334,2.667,2.666,2.667,4,0C326.666,66.333,325.334,66.333,324,69z M324,62c1.334,2.667,2.666,2.667,4,0
										C326.666,59.333,325.334,59.333,324,62z M324,56c1.334,2.667,2.666,2.667,4,0C326.666,53.333,325.334,53.333,324,56z
										 M324,49c1.334,2.667,2.666,2.667,4,0C326.666,46.333,325.334,46.333,324,49z M324,36c1.334,2.667,2.666,2.667,4,0
										C326.666,33.333,325.334,33.333,324,36z M324,29c1.334,2.667,2.666,2.667,4,0C326.666,26.333,325.334,26.333,324,29z
										 M316,143c1.334,2.667,2.666,2.667,4,0C318.666,140.333,317.334,140.333,316,143z M316,136c1.334,2.667,2.666,2.667,4,0
										C318.666,133.333,317.334,133.333,316,136z M316,130c1.334,2.667,2.666,2.667,4,0C318.666,127.333,317.334,127.333,316,130
										z M316,123c1.334,2.667,2.666,2.667,4,0C318.666,120.333,317.334,120.333,316,123z M316,116c1.334,2.667,2.666,2.667,4,0
										C318.666,113.333,317.334,113.333,316,116z M316,96c1.334,2.667,2.666,2.667,4,0C318.666,93.333,317.334,93.333,316,96z
										 M316,89c1.334,2.667,2.666,2.667,4,0C318.666,86.333,317.334,86.333,316,89z M316,83c1.334,2.667,2.666,2.667,4,0
										C318.666,80.333,317.334,80.333,316,83z M316,76c1.334,2.667,2.666,2.667,4,0C318.666,73.333,317.334,73.333,316,76z
										 M316,69c1.334,2.667,2.666,2.667,4,0C318.666,66.333,317.334,66.333,316,69z M316,62c1.334,2.667,2.666,2.667,4,0
										C318.666,59.333,317.334,59.333,316,62z M316,56c1.334,2.667,2.666,2.667,4,0C318.666,53.333,317.334,53.333,316,56z
										 M316,49c1.334,2.667,2.666,2.667,4,0C318.666,46.333,317.334,46.333,316,49z M316,36c1.334,2.667,2.666,2.667,4,0
										C318.666,33.333,317.334,33.333,316,36z M309,143c1.334,2.667,2.666,2.667,4,0C311.666,140.333,310.334,140.333,309,143z
										 M309,136c1.334,2.667,2.666,2.667,4,0C311.666,133.333,310.334,133.333,309,136z M309,130c1.334,2.667,2.666,2.667,4,0
										C311.666,127.333,310.334,127.333,309,130z M309,123c1.334,2.667,2.666,2.667,4,0C311.666,120.333,310.334,120.333,309,123
										z M309,116c1.334,2.667,2.666,2.667,4,0C311.666,113.333,310.334,113.333,309,116z M309,110c1.334,2.667,2.666,2.667,4,0
										C311.666,107.333,310.334,107.333,309,110z M309,103c1.334,2.667,2.666,2.667,4,0C311.666,100.333,310.334,100.333,309,103
										z M309,96c1.334,2.667,2.666,2.667,4,0C311.666,93.333,310.334,93.333,309,96z M309,89c1.334,2.667,2.666,2.667,4,0
										C311.666,86.333,310.334,86.333,309,89z M309,83c1.334,2.667,2.666,2.667,4,0C311.666,80.333,310.334,80.333,309,83z
										 M309,76c1.334,2.667,2.666,2.667,4,0C311.666,73.333,310.334,73.333,309,76z M309,69c1.334,2.667,2.666,2.667,4,0
										C311.666,66.333,310.334,66.333,309,69z M309,62c1.334,2.667,2.666,2.667,4,0C311.666,59.333,310.334,59.333,309,62z
										 M309,56c1.334,2.667,2.666,2.667,4,0C311.666,53.333,310.334,53.333,309,56z M309,49c1.334,2.667,2.666,2.667,4,0
										C311.666,46.333,310.334,46.333,309,49z M304,204c1.333,2.667,2.666,2.667,4,0C306.666,201.333,305.333,201.333,304,204z
										 M304,197c1.333,2.667,2.666,2.667,4,0C306.666,194.333,305.333,194.333,304,197z M304,190c1.333,2.667,2.666,2.667,4,0
										C306.666,187.333,305.333,187.333,304,190z M304,170c1.333,2.667,2.666,2.667,4,0C306.666,167.333,305.333,167.333,304,170
										z M304,163c1.333,2.667,2.666,2.667,4,0C306.666,160.333,305.333,160.333,304,163z M304,157c1.333,2.667,2.666,2.667,4,0
										C306.666,154.333,305.333,154.333,304,157z M304,150c1.333,2.667,2.666,2.667,4,0C306.666,147.333,305.333,147.333,304,150
										z M304,143c1.333,2.667,2.666,2.667,4,0C306.666,140.333,305.333,140.333,304,143z M304,136c1.333,2.667,2.666,2.667,4,0
										C306.666,133.333,305.333,133.333,304,136z M304,130c1.333,2.667,2.666,2.667,4,0C306.666,127.333,305.333,127.333,304,130
										z M304,123c1.333,2.667,2.666,2.667,4,0C306.666,120.333,305.333,120.333,304,123z M304,116c1.333,2.667,2.666,2.667,4,0
										C306.666,113.333,305.333,113.333,304,116z M304,110c1.333,2.667,2.666,2.667,4,0C306.666,107.333,305.333,107.333,304,110
										z M304,103c1.333,2.667,2.666,2.667,4,0C306.666,100.333,305.333,100.333,304,103z M304,96c1.333,2.667,2.666,2.667,4,0
										C306.666,93.333,305.333,93.333,304,96z M304,89c1.333,2.667,2.666,2.667,4,0C306.666,86.333,305.333,86.333,304,89z
										 M304,83c1.333,2.667,2.666,2.667,4,0C306.666,80.333,305.333,80.333,304,83z M304,76c1.333,2.667,2.666,2.667,4,0
										C306.666,73.333,305.333,73.333,304,76z M304,69c1.333,2.667,2.666,2.667,4,0C306.666,66.333,305.333,66.333,304,69z
										 M304,62c1.333,2.667,2.666,2.667,4,0C306.666,59.333,305.333,59.333,304,62z M304,56c1.333,2.667,2.666,2.667,4,0
										C306.666,53.333,305.333,53.333,304,56z M304,49c1.333,2.667,2.666,2.667,4,0C306.666,46.333,305.333,46.333,304,49z
										 M297,204c1.333,2.667,2.666,2.667,4,0C299.666,201.333,298.333,201.333,297,204z M297,177c1.333,2.667,2.666,2.667,4,0
										C299.666,174.333,298.333,174.333,297,177z M297,170c1.333,2.667,2.666,2.667,4,0C299.666,167.333,298.333,167.333,297,170
										z M297,163c1.333,2.667,2.666,2.667,4,0C299.666,160.333,298.333,160.333,297,163z M297,157c1.333,2.667,2.666,2.667,4,0
										C299.666,154.333,298.333,154.333,297,157z M297,150c1.333,2.667,2.666,2.667,4,0C299.666,147.333,298.333,147.333,297,150
										z M297,143c1.333,2.667,2.666,2.667,4,0C299.666,140.333,298.333,140.333,297,143z M297,136c1.333,2.667,2.666,2.667,4,0
										C299.666,133.333,298.333,133.333,297,136z M297,130c1.333,2.667,2.666,2.667,4,0C299.666,127.333,298.333,127.333,297,130
										z M297,123c1.333,2.667,2.666,2.667,4,0C299.666,120.333,298.333,120.333,297,123z M297,116c1.333,2.667,2.666,2.667,4,0
										C299.666,113.333,298.333,113.333,297,116z M297,110c1.333,2.667,2.666,2.667,4,0C299.666,107.333,298.333,107.333,297,110
										z M297,103c1.333,2.667,2.666,2.667,4,0C299.666,100.333,298.333,100.333,297,103z M297,96c1.333,2.667,2.666,2.667,4,0
										C299.666,93.333,298.333,93.333,297,96z M297,89c1.333,2.667,2.666,2.667,4,0C299.666,86.333,298.333,86.333,297,89z
										 M297,83c1.333,2.667,2.666,2.667,4,0C299.666,80.333,298.333,80.333,297,83z M297,76c1.333,2.667,2.666,2.667,4,0
										C299.666,73.333,298.333,73.333,297,76z M297,69c1.333,2.667,2.666,2.667,4,0C299.666,66.333,298.333,66.333,297,69z
										 M297,62c1.333,2.667,2.666,2.667,4,0C299.666,59.333,298.333,59.333,297,62z M297,56c1.333,2.667,2.666,2.667,4,0
										C299.666,53.333,298.333,53.333,297,56z M297,49c1.333,2.667,2.666,2.667,4,0C299.666,46.333,298.333,46.333,297,49z
										 M289,210c1.334,2.667,2.667,2.667,4,0C291.667,207.333,290.334,207.333,289,210z M289,204c1.334,2.667,2.667,2.667,4,0
										C291.667,201.333,290.334,201.333,289,204z M289,197c1.334,2.667,2.667,2.667,4,0C291.667,194.333,290.334,194.333,289,197
										z M289,190c1.334,2.667,2.667,2.667,4,0C291.667,187.333,290.334,187.333,289,190z M289,183c1.334,2.667,2.667,2.667,4,0
										C291.667,180.333,290.334,180.333,289,183z M289,177c1.334,2.667,2.667,2.667,4,0C291.667,174.333,290.334,174.333,289,177
										z M289,170c1.334,2.667,2.667,2.667,4,0C291.667,167.333,290.334,167.333,289,170z M289,163c1.334,2.667,2.667,2.667,4,0
										C291.667,160.333,290.334,160.333,289,163z M289,157c1.334,2.667,2.667,2.667,4,0C291.667,154.333,290.334,154.333,289,157
										z M289,150c1.334,2.667,2.667,2.667,4,0C291.667,147.333,290.334,147.333,289,150z M289,143c1.334,2.667,2.667,2.667,4,0
										C291.667,140.333,290.334,140.333,289,143z M289,136c1.334,2.667,2.667,2.667,4,0C291.667,133.333,290.334,133.333,289,136
										z M289,130c1.334,2.667,2.667,2.667,4,0C291.667,127.333,290.334,127.333,289,130z M289,123c1.334,2.667,2.667,2.667,4,0
										C291.667,120.333,290.334,120.333,289,123z M289,110c1.334,2.667,2.667,2.667,4,0C291.667,107.333,290.334,107.333,289,110
										z M289,103c1.334,2.667,2.667,2.667,4,0C291.667,100.333,290.334,100.333,289,103z M289,89c1.334,2.667,2.667,2.667,4,0
										C291.667,86.333,290.334,86.333,289,89z M289,83c1.334,2.667,2.667,2.667,4,0C291.667,80.333,290.334,80.333,289,83z
										 M289,76c1.334,2.667,2.667,2.667,4,0C291.667,73.333,290.334,73.333,289,76z M289,69c1.334,2.667,2.667,2.667,4,0
										C291.667,66.333,290.334,66.333,289,69z M289,62c1.334,2.667,2.667,2.667,4,0C291.667,59.333,290.334,59.333,289,62z
										 M289,56c1.334,2.667,2.667,2.667,4,0C291.667,53.333,290.334,53.333,289,56z M289,49c1.334,2.667,2.667,2.667,4,0
										C291.667,46.333,290.334,46.333,289,49z M282,217c1.334,2.667,2.667,2.667,4,0C284.667,214.333,283.334,214.333,282,217z
										 M282,210c1.334,2.667,2.667,2.667,4,0C284.667,207.333,283.334,207.333,282,210z M282,204c1.334,2.667,2.667,2.667,4,0
										C284.667,201.333,283.334,201.333,282,204z M282,197c1.334,2.667,2.667,2.667,4,0C284.667,194.333,283.334,194.333,282,197
										z M282,190c1.334,2.667,2.667,2.667,4,0C284.667,187.333,283.334,187.333,282,190z M282,183c1.334,2.667,2.667,2.667,4,0
										C284.667,180.333,283.334,180.333,282,183z M282,177c1.334,2.667,2.667,2.667,4,0C284.667,174.333,283.334,174.333,282,177
										z M282,170c1.334,2.667,2.667,2.667,4,0C284.667,167.333,283.334,167.333,282,170z M282,163c1.334,2.667,2.667,2.667,4,0
										C284.667,160.333,283.334,160.333,282,163z M282,157c1.334,2.667,2.667,2.667,4,0C284.667,154.333,283.334,154.333,282,157
										z M282,150c1.334,2.667,2.667,2.667,4,0C284.667,147.333,283.334,147.333,282,150z M282,143c1.334,2.667,2.667,2.667,4,0
										C284.667,140.333,283.334,140.333,282,143z M282,136c1.334,2.667,2.667,2.667,4,0C284.667,133.333,283.334,133.333,282,136
										z M282,130c1.334,2.667,2.667,2.667,4,0C284.667,127.333,283.334,127.333,282,130z M282,123c1.334,2.667,2.667,2.667,4,0
										C284.667,120.333,283.334,120.333,282,123z M282,110c1.334,2.667,2.667,2.667,4,0C284.667,107.333,283.334,107.333,282,110
										z M282,89c1.334,2.667,2.667,2.667,4,0C284.667,86.333,283.334,86.333,282,89z M282,83c1.334,2.667,2.667,2.667,4,0
										C284.667,80.333,283.334,80.333,282,83z M282,76c1.334,2.667,2.667,2.667,4,0C284.667,73.333,283.334,73.333,282,76z
										 M282,69c1.334,2.667,2.667,2.667,4,0C284.667,66.333,283.334,66.333,282,69z M282,62c1.334,2.667,2.667,2.667,4,0
										C284.667,59.333,283.334,59.333,282,62z M282,56c1.334,2.667,2.667,2.667,4,0C284.667,53.333,283.334,53.333,282,56z
										 M282,49c1.334,2.667,2.667,2.667,4,0C284.667,46.333,283.334,46.333,282,49z M277,224c1.334,2.667,2.667,2.667,4,0
										C279.667,221.333,278.334,221.333,277,224z M277,217c1.334,2.667,2.667,2.667,4,0C279.667,214.333,278.334,214.333,277,217
										z M277,210c1.334,2.667,2.667,2.667,4,0C279.667,207.333,278.334,207.333,277,210z M277,204c1.334,2.667,2.667,2.667,4,0
										C279.667,201.333,278.334,201.333,277,204z M277,197c1.334,2.667,2.667,2.667,4,0C279.667,194.333,278.334,194.333,277,197
										z M277,190c1.334,2.667,2.667,2.667,4,0C279.667,187.333,278.334,187.333,277,190z M277,183c1.334,2.667,2.667,2.667,4,0
										C279.667,180.333,278.334,180.333,277,183z M277,177c1.334,2.667,2.667,2.667,4,0C279.667,174.333,278.334,174.333,277,177
										z M277,170c1.334,2.667,2.667,2.667,4,0C279.667,167.333,278.334,167.333,277,170z M277,163c1.334,2.667,2.667,2.667,4,0
										C279.667,160.333,278.334,160.333,277,163z M277,157c1.334,2.667,2.667,2.667,4,0C279.667,154.333,278.334,154.333,277,157
										z M277,150c1.334,2.667,2.667,2.667,4,0C279.667,147.333,278.334,147.333,277,150z M277,143c1.334,2.667,2.667,2.667,4,0
										C279.667,140.333,278.334,140.333,277,143z M277,136c1.334,2.667,2.667,2.667,4,0C279.667,133.333,278.334,133.333,277,136
										z M277,130c1.334,2.667,2.667,2.667,4,0C279.667,127.333,278.334,127.333,277,130z M277,123c1.334,2.667,2.667,2.667,4,0
										C279.667,120.333,278.334,120.333,277,123z M277,110c1.334,2.667,2.667,2.667,4,0C279.667,107.333,278.334,107.333,277,110
										z M277,103c1.334,2.667,2.667,2.667,4,0C279.667,100.333,278.334,100.333,277,103z M277,96c1.334,2.667,2.667,2.667,4,0
										C279.667,93.333,278.334,93.333,277,96z M277,89c1.334,2.667,2.667,2.667,4,0C279.667,86.333,278.334,86.333,277,89z
										 M277,83c1.334,2.667,2.667,2.667,4,0C279.667,80.333,278.334,80.333,277,83z M277,76c1.334,2.667,2.667,2.667,4,0
										C279.667,73.333,278.334,73.333,277,76z M277,69c1.334,2.667,2.667,2.667,4,0C279.667,66.333,278.334,66.333,277,69z
										 M277,62c1.334,2.667,2.667,2.667,4,0C279.667,59.333,278.334,59.333,277,62z M277,56c1.334,2.667,2.667,2.667,4,0
										C279.667,53.333,278.334,53.333,277,56z M277,49c1.334,2.667,2.667,2.667,4,0C279.667,46.333,278.334,46.333,277,49z
										 M270,224c1.334,2.667,2.666,2.667,4,0C272.666,221.333,271.334,221.333,270,224z M270,217c1.334,2.667,2.666,2.667,4,0
										C272.666,214.333,271.334,214.333,270,217z M270,210c1.334,2.667,2.666,2.667,4,0C272.666,207.333,271.334,207.333,270,210
										z M270,204c1.334,2.667,2.666,2.667,4,0C272.666,201.333,271.334,201.333,270,204z M270,197c1.334,2.667,2.666,2.667,4,0
										C272.666,194.333,271.334,194.333,270,197z M270,190c1.334,2.667,2.666,2.667,4,0C272.666,187.333,271.334,187.333,270,190
										z M270,183c1.334,2.667,2.666,2.667,4,0C272.666,180.333,271.334,180.333,270,183z M270,177c1.334,2.667,2.666,2.667,4,0
										C272.666,174.333,271.334,174.333,270,177z M270,170c1.334,2.667,2.666,2.667,4,0C272.666,167.333,271.334,167.333,270,170
										z M270,163c1.334,2.667,2.666,2.667,4,0C272.666,160.333,271.334,160.333,270,163z M270,157c1.334,2.667,2.666,2.667,4,0
										C272.666,154.333,271.334,154.333,270,157z M270,150c1.334,2.667,2.666,2.667,4,0C272.666,147.333,271.334,147.333,270,150
										z M270,143c1.334,2.667,2.666,2.667,4,0C272.666,140.333,271.334,140.333,270,143z M270,136c1.334,2.667,2.666,2.667,4,0
										C272.666,133.333,271.334,133.333,270,136z M270,130c1.334,2.667,2.666,2.667,4,0C272.666,127.333,271.334,127.333,270,130
										z M270,123c1.334,2.667,2.666,2.667,4,0C272.666,120.333,271.334,120.333,270,123z M270,103c1.334,2.667,2.666,2.667,4,0
										C272.666,100.333,271.334,100.333,270,103z M270,96c1.334,2.667,2.666,2.667,4,0C272.666,93.333,271.334,93.333,270,96z
										 M270,89c1.334,2.667,2.666,2.667,4,0C272.666,86.333,271.334,86.333,270,89z M270,83c1.334,2.667,2.666,2.667,4,0
										C272.666,80.333,271.334,80.333,270,83z M270,76c1.334,2.667,2.666,2.667,4,0C272.666,73.333,271.334,73.333,270,76z
										 M270,69c1.334,2.667,2.666,2.667,4,0C272.666,66.333,271.334,66.333,270,69z M270,62c1.334,2.667,2.666,2.667,4,0
										C272.666,59.333,271.334,59.333,270,62z M262,210c1.333,2.667,2.666,2.667,4,0C264.666,207.333,263.333,207.333,262,210z
										 M262,204c1.333,2.667,2.666,2.667,4,0C264.666,201.333,263.333,201.333,262,204z M262,197c1.333,2.667,2.666,2.667,4,0
										C264.666,194.333,263.333,194.333,262,197z M262,190c1.333,2.667,2.666,2.667,4,0C264.666,187.333,263.333,187.333,262,190
										z M262,183c1.333,2.667,2.666,2.667,4,0C264.666,180.333,263.333,180.333,262,183z M262,177c1.333,2.667,2.666,2.667,4,0
										C264.666,174.333,263.333,174.333,262,177z M262,170c1.333,2.667,2.666,2.667,4,0C264.666,167.333,263.333,167.333,262,170
										z M262,163c1.333,2.667,2.666,2.667,4,0C264.666,160.333,263.333,160.333,262,163z M262,157c1.333,2.667,2.666,2.667,4,0
										C264.666,154.333,263.333,154.333,262,157z M262,150c1.333,2.667,2.666,2.667,4,0C264.666,147.333,263.333,147.333,262,150
										z M262,143c1.333,2.667,2.666,2.667,4,0C264.666,140.333,263.333,140.333,262,143z M262,136c1.333,2.667,2.666,2.667,4,0
										C264.666,133.333,263.333,133.333,262,136z M262,130c1.333,2.667,2.666,2.667,4,0C264.666,127.333,263.333,127.333,262,130
										z M262,123c1.333,2.667,2.666,2.667,4,0C264.666,120.333,263.333,120.333,262,123z M262,103c1.333,2.667,2.666,2.667,4,0
										C264.666,100.333,263.333,100.333,262,103z M262,96c1.333,2.667,2.666,2.667,4,0C264.666,93.333,263.333,93.333,262,96z
										 M262,89c1.333,2.667,2.666,2.667,4,0C264.666,86.333,263.333,86.333,262,89z M262,83c1.333,2.667,2.666,2.667,4,0
										C264.666,80.333,263.333,80.333,262,83z M262,69c1.333,2.667,2.666,2.667,4,0C264.666,66.333,263.333,66.333,262,69z
										 M262,62c1.333,2.667,2.666,2.667,4,0C264.666,59.333,263.333,59.333,262,62z M256,197c1.333,2.667,2.666,2.667,4,0
										C258.666,194.333,257.333,194.333,256,197z M256,190c1.333,2.667,2.666,2.667,4,0C258.666,187.333,257.333,187.333,256,190
										z M256,183c1.333,2.667,2.666,2.667,4,0C258.666,180.333,257.333,180.333,256,183z M256,177c1.333,2.667,2.666,2.667,4,0
										C258.666,174.333,257.333,174.333,256,177z M256,170c1.333,2.667,2.666,2.667,4,0C258.666,167.333,257.333,167.333,256,170
										z M256,163c1.333,2.667,2.666,2.667,4,0C258.666,160.333,257.333,160.333,256,163z M256,157c1.333,2.667,2.666,2.667,4,0
										C258.666,154.333,257.333,154.333,256,157z M256,150c1.333,2.667,2.666,2.667,4,0C258.666,147.333,257.333,147.333,256,150
										z M256,143c1.333,2.667,2.666,2.667,4,0C258.666,140.333,257.333,140.333,256,143z M256,136c1.333,2.667,2.666,2.667,4,0
										C258.666,133.333,257.333,133.333,256,136z M256,130c1.333,2.667,2.666,2.667,4,0C258.666,127.333,257.333,127.333,256,130
										z M256,123c1.333,2.667,2.666,2.667,4,0C258.666,120.333,257.333,120.333,256,123z M256,96c1.333,2.667,2.666,2.667,4,0
										C258.666,93.333,257.333,93.333,256,96z M256,89c1.333,2.667,2.666,2.667,4,0C258.666,86.333,257.333,86.333,256,89z
										 M256,83c1.333,2.667,2.666,2.667,4,0C258.666,80.333,257.333,80.333,256,83z M256,69c1.333,2.667,2.666,2.667,4,0
										C258.666,66.333,257.333,66.333,256,69z M256,62c1.333,2.667,2.666,2.667,4,0C258.666,59.333,257.333,59.333,256,62z
										 M256,56c1.333,2.667,2.666,2.667,4,0C258.666,53.333,257.333,53.333,256,56z M256,49c1.333,2.667,2.666,2.667,4,0
										C258.666,46.333,257.333,46.333,256,49z M250,163c1.334,2.667,2.666,2.667,4,0C252.666,160.333,251.334,160.333,250,163z
										 M250,157c1.334,2.667,2.666,2.667,4,0C252.666,154.333,251.334,154.333,250,157z M250,150c1.334,2.667,2.666,2.667,4,0
										C252.666,147.333,251.334,147.333,250,150z M250,143c1.334,2.667,2.666,2.667,4,0C252.666,140.333,251.334,140.333,250,143
										z M250,136c1.334,2.667,2.666,2.667,4,0C252.666,133.333,251.334,133.333,250,136z M250,130c1.334,2.667,2.666,2.667,4,0
										C252.666,127.333,251.334,127.333,250,130z M250,123c1.334,2.667,2.666,2.667,4,0C252.666,120.333,251.334,120.333,250,123
										z M250,116c1.334,2.667,2.666,2.667,4,0C252.666,113.333,251.334,113.333,250,116z M250,96c1.334,2.667,2.666,2.667,4,0
										C252.666,93.333,251.334,93.333,250,96z M250,89c1.334,2.667,2.666,2.667,4,0C252.666,86.333,251.334,86.333,250,89z
										 M250,83c1.334,2.667,2.666,2.667,4,0C252.666,80.333,251.334,80.333,250,83z M250,76c1.334,2.667,2.666,2.667,4,0
										C252.666,73.333,251.334,73.333,250,76z M250,69c1.334,2.667,2.666,2.667,4,0C252.666,66.333,251.334,66.333,250,69z
										 M250,62c1.334,2.667,2.666,2.667,4,0C252.666,59.333,251.334,59.333,250,62z M250,56c1.334,2.667,2.666,2.667,4,0
										C252.666,53.333,251.334,53.333,250,56z M250,49c1.334,2.667,2.666,2.667,4,0C252.666,46.333,251.334,46.333,250,49z
										 M243,157c1.334,2.667,2.667,2.667,4,0C245.667,154.333,244.334,154.333,243,157z M243,150c1.334,2.667,2.667,2.667,4,0
										C245.667,147.333,244.334,147.333,243,150z M243,143c1.334,2.667,2.667,2.667,4,0C245.667,140.333,244.334,140.333,243,143
										z M243,136c1.334,2.667,2.667,2.667,4,0C245.667,133.333,244.334,133.333,243,136z M243,130c1.334,2.667,2.667,2.667,4,0
										C245.667,127.333,244.334,127.333,243,130z M243,123c1.334,2.667,2.667,2.667,4,0C245.667,120.333,244.334,120.333,243,123
										z M243,116c1.334,2.667,2.667,2.667,4,0C245.667,113.333,244.334,113.333,243,116z M243,110c1.334,2.667,2.667,2.667,4,0
										C245.667,107.333,244.334,107.333,243,110z M243,103c1.334,2.667,2.667,2.667,4,0C245.667,100.333,244.334,100.333,243,103
										z M243,96c1.334,2.667,2.667,2.667,4,0C245.667,93.333,244.334,93.333,243,96z M243,89c1.334,2.667,2.667,2.667,4,0
										C245.667,86.333,244.334,86.333,243,89z M243,83c1.334,2.667,2.667,2.667,4,0C245.667,80.333,244.334,80.333,243,83z
										 M235,157c1.333,2.667,2.666,2.667,4,0C237.666,154.333,236.333,154.333,235,157z M235,150c1.333,2.667,2.666,2.667,4,0
										C237.666,147.333,236.333,147.333,235,150z M235,143c1.333,2.667,2.666,2.667,4,0C237.666,140.333,236.333,140.333,235,143
										z M235,136c1.333,2.667,2.666,2.667,4,0C237.666,133.333,236.333,133.333,235,136z M235,130c1.333,2.667,2.666,2.667,4,0
										C237.666,127.333,236.333,127.333,235,130z M235,123c1.333,2.667,2.666,2.667,4,0C237.666,120.333,236.333,120.333,235,123
										z M235,116c1.333,2.667,2.666,2.667,4,0C237.666,113.333,236.333,113.333,235,116z M235,110c1.333,2.667,2.666,2.667,4,0
										C237.666,107.333,236.333,107.333,235,110z M235,103c1.333,2.667,2.666,2.667,4,0C237.666,100.333,236.333,100.333,235,103
										z M235,96c1.333,2.667,2.666,2.667,4,0C237.666,93.333,236.333,93.333,235,96z M235,89c1.333,2.667,2.666,2.667,4,0
										C237.666,86.333,236.333,86.333,235,89z M235,83c1.333,2.667,2.666,2.667,4,0C237.666,80.333,236.333,80.333,235,83z
										 M235,69c1.333,2.667,2.666,2.667,4,0C237.666,66.333,236.333,66.333,235,69z M229,157c1.334,2.667,2.667,2.667,4,0
										C231.667,154.333,230.334,154.333,229,157z M229,150c1.334,2.667,2.667,2.667,4,0C231.667,147.333,230.334,147.333,229,150
										z M229,143c1.334,2.667,2.667,2.667,4,0C231.667,140.333,230.334,140.333,229,143z M229,136c1.334,2.667,2.667,2.667,4,0
										C231.667,133.333,230.334,133.333,229,136z M229,130c1.334,2.667,2.667,2.667,4,0C231.667,127.333,230.334,127.333,229,130
										z M229,123c1.334,2.667,2.667,2.667,4,0C231.667,120.333,230.334,120.333,229,123z M229,116c1.334,2.667,2.667,2.667,4,0
										C231.667,113.333,230.334,113.333,229,116z M229,110c1.334,2.667,2.667,2.667,4,0C231.667,107.333,230.334,107.333,229,110
										z M229,103c1.334,2.667,2.667,2.667,4,0C231.667,100.333,230.334,100.333,229,103z M229,96c1.334,2.667,2.667,2.667,4,0
										C231.667,93.333,230.334,93.333,229,96z M229,76c1.334,2.667,2.667,2.667,4,0C231.667,73.333,230.334,73.333,229,76z
										 M229,69c1.334,2.667,2.667,2.667,4,0C231.667,66.333,230.334,66.333,229,69z M229,62c1.334,2.667,2.667,2.667,4,0
										C231.667,59.333,230.334,59.333,229,62z M229,56c1.334,2.667,2.667,2.667,4,0C231.667,53.333,230.334,53.333,229,56z
										 M222,157c1.334,2.667,2.666,2.667,4,0C224.666,154.333,223.334,154.333,222,157z M222,150c1.334,2.667,2.666,2.667,4,0
										C224.666,147.333,223.334,147.333,222,150z M222,143c1.334,2.667,2.666,2.667,4,0C224.666,140.333,223.334,140.333,222,143
										z M222,136c1.334,2.667,2.666,2.667,4,0C224.666,133.333,223.334,133.333,222,136z M222,130c1.334,2.667,2.666,2.667,4,0
										C224.666,127.333,223.334,127.333,222,130z M222,123c1.334,2.667,2.666,2.667,4,0C224.666,120.333,223.334,120.333,222,123
										z M222,76c1.334,2.667,2.666,2.667,4,0C224.666,73.333,223.334,73.333,222,76z M222,69c1.334,2.667,2.666,2.667,4,0
										C224.666,66.333,223.334,66.333,222,69z M222,62c1.334,2.667,2.666,2.667,4,0C224.666,59.333,223.334,59.333,222,62z
										 M216,150c1.334,2.667,2.666,2.667,4,0C218.666,147.333,217.334,147.333,216,150z M216,143c1.334,2.667,2.666,2.667,4,0
										C218.666,140.333,217.334,140.333,216,143z M216,136c1.334,2.667,2.666,2.667,4,0C218.666,133.333,217.334,133.333,216,136
										z M216,130c1.334,2.667,2.666,2.667,4,0C218.666,127.333,217.334,127.333,216,130z M216,69c1.334,2.667,2.666,2.667,4,0
										C218.666,66.333,217.334,66.333,216,69z M216,49c1.334,2.667,2.666,2.667,4,0C218.666,46.333,217.334,46.333,216,49z
										 M208,56c1.334,2.667,2.667,2.667,4,0C210.667,53.333,209.334,53.333,208,56z M208,49c1.334,2.667,2.667,2.667,4,0
										C210.667,46.333,209.334,46.333,208,49z M208,42c1.334,2.667,2.667,2.667,4,0C210.667,39.333,209.334,39.333,208,42z
										 M208,36c1.334,2.667,2.667,2.667,4,0C210.667,33.333,209.334,33.333,208,36z M208,29c1.334,2.667,2.667,2.667,4,0
										C210.667,26.333,209.334,26.333,208,29z M208,22c1.334,2.667,2.667,2.667,4,0C210.667,19.333,209.334,19.333,208,22z
										 M202,56c1.333,2.667,2.666,2.667,4,0C204.666,53.333,203.333,53.333,202,56z M202,49c1.333,2.667,2.666,2.667,4,0
										C204.666,46.333,203.333,46.333,202,49z M202,42c1.333,2.667,2.666,2.667,4,0C204.666,39.333,203.333,39.333,202,42z
										 M202,36c1.333,2.667,2.666,2.667,4,0C204.666,33.333,203.333,33.333,202,36z M202,29c1.333,2.667,2.666,2.667,4,0
										C204.666,26.333,203.333,26.333,202,29z M202,22c1.333,2.667,2.666,2.667,4,0C204.666,19.333,203.333,19.333,202,22z
										 M195,49c1.334,2.667,2.666,2.667,4,0C197.666,46.333,196.334,46.333,195,49z M195,42c1.334,2.667,2.666,2.667,4,0
										C197.666,39.333,196.334,39.333,195,42z M195,36c1.334,2.667,2.666,2.667,4,0C197.666,33.333,196.334,33.333,195,36z
										 M195,29c1.334,2.667,2.666,2.667,4,0C197.666,26.333,196.334,26.333,195,29z M195,22c1.334,2.667,2.666,2.667,4,0
										C197.666,19.333,196.334,19.333,195,22z M195,15c1.334,2.667,2.666,2.667,4,0C197.666,12.333,196.334,12.333,195,15z
										 M189,197c1.333,2.667,2.666,2.667,4,0C191.666,194.333,190.333,194.333,189,197z M189,56c1.333,2.667,2.666,2.667,4,0
										C191.666,53.333,190.333,53.333,189,56z M189,49c1.333,2.667,2.666,2.667,4,0C191.666,46.333,190.333,46.333,189,49z
										 M189,42c1.333,2.667,2.666,2.667,4,0C191.666,39.333,190.333,39.333,189,42z M189,36c1.333,2.667,2.666,2.667,4,0
										C191.666,33.333,190.333,33.333,189,36z M189,29c1.333,2.667,2.666,2.667,4,0C191.666,26.333,190.333,26.333,189,29z
										 M189,22c1.333,2.667,2.666,2.667,4,0C191.666,19.333,190.333,19.333,189,22z M189,15c1.333,2.667,2.666,2.667,4,0
										C191.666,12.333,190.333,12.333,189,15z M189,9c1.333,2.667,2.666,2.667,4,0C191.666,6.333,190.333,6.333,189,9z M183,217
										c1.334,2.667,2.667,2.667,4,0C185.667,214.333,184.334,214.333,183,217z M183,210c1.334,2.667,2.667,2.667,4,0
										C185.667,207.333,184.334,207.333,183,210z M183,204c1.334,2.667,2.667,2.667,4,0C185.667,201.333,184.334,201.333,183,204
										z M183,197c1.334,2.667,2.667,2.667,4,0C185.667,194.333,184.334,194.333,183,197z M183,190c1.334,2.667,2.667,2.667,4,0
										C185.667,187.333,184.334,187.333,183,190z M183,69c1.334,2.667,2.667,2.667,4,0C185.667,66.333,184.334,66.333,183,69z
										 M183,62c1.334,2.667,2.667,2.667,4,0C185.667,59.333,184.334,59.333,183,62z M183,56c1.334,2.667,2.667,2.667,4,0
										C185.667,53.333,184.334,53.333,183,56z M183,49c1.334,2.667,2.667,2.667,4,0C185.667,46.333,184.334,46.333,183,49z
										 M183,42c1.334,2.667,2.667,2.667,4,0C185.667,39.333,184.334,39.333,183,42z M183,36c1.334,2.667,2.667,2.667,4,0
										C185.667,33.333,184.334,33.333,183,36z M183,29c1.334,2.667,2.667,2.667,4,0C185.667,26.333,184.334,26.333,183,29z
										 M183,22c1.334,2.667,2.667,2.667,4,0C185.667,19.333,184.334,19.333,183,22z M183,15c1.334,2.667,2.667,2.667,4,0
										C185.667,12.333,184.334,12.333,183,15z M183,9c1.334,2.667,2.667,2.667,4,0C185.667,6.333,184.334,6.333,183,9z M183,2
										c1.334,2.667,2.667,2.667,4,0C185.667-0.667,184.334-0.667,183,2z M175,224c1.333,2.667,2.666,2.667,4,0
										C177.666,221.333,176.333,221.333,175,224z M175,217c1.333,2.667,2.666,2.667,4,0C177.666,214.333,176.333,214.333,175,217
										z M175,210c1.333,2.667,2.666,2.667,4,0C177.666,207.333,176.333,207.333,175,210z M175,204c1.333,2.667,2.666,2.667,4,0
										C177.666,201.333,176.333,201.333,175,204z M175,197c1.333,2.667,2.666,2.667,4,0C177.666,194.333,176.333,194.333,175,197
										z M175,190c1.333,2.667,2.666,2.667,4,0C177.666,187.333,176.333,187.333,175,190z M175,69c1.333,2.667,2.666,2.667,4,0
										C177.666,66.333,176.333,66.333,175,69z M175,62c1.333,2.667,2.666,2.667,4,0C177.666,59.333,176.333,59.333,175,62z
										 M175,56c1.333,2.667,2.666,2.667,4,0C177.666,53.333,176.333,53.333,175,56z M175,49c1.333,2.667,2.666,2.667,4,0
										C177.666,46.333,176.333,46.333,175,49z M175,42c1.333,2.667,2.666,2.667,4,0C177.666,39.333,176.333,39.333,175,42z
										 M175,36c1.333,2.667,2.666,2.667,4,0C177.666,33.333,176.333,33.333,175,36z M175,29c1.333,2.667,2.666,2.667,4,0
										C177.666,26.333,176.333,26.333,175,29z M175,22c1.333,2.667,2.666,2.667,4,0C177.666,19.333,176.333,19.333,175,22z
										 M175,15c1.333,2.667,2.666,2.667,4,0C177.666,12.333,176.333,12.333,175,15z M175,9c1.333,2.667,2.666,2.667,4,0
										C177.666,6.333,176.333,6.333,175,9z M175,2c1.333,2.667,2.666,2.667,4,0C177.666-0.667,176.333-0.667,175,2z M168,237
										c1.334,2.667,2.666,2.667,4,0C170.666,234.333,169.334,234.333,168,237z M168,230c1.334,2.667,2.666,2.667,4,0
										C170.666,227.333,169.334,227.333,168,230z M168,224c1.334,2.667,2.666,2.667,4,0C170.666,221.333,169.334,221.333,168,224
										z M168,217c1.334,2.667,2.666,2.667,4,0C170.666,214.333,169.334,214.333,168,217z M168,210c1.334,2.667,2.666,2.667,4,0
										C170.666,207.333,169.334,207.333,168,210z M168,204c1.334,2.667,2.666,2.667,4,0C170.666,201.333,169.334,201.333,168,204
										z M168,197c1.334,2.667,2.666,2.667,4,0C170.666,194.333,169.334,194.333,168,197z M168,190c1.334,2.667,2.666,2.667,4,0
										C170.666,187.333,169.334,187.333,168,190z M168,183c1.334,2.667,2.666,2.667,4,0C170.666,180.333,169.334,180.333,168,183
										z M168,62c1.334,2.667,2.666,2.667,4,0C170.666,59.333,169.334,59.333,168,62z M168,56c1.334,2.667,2.666,2.667,4,0
										C170.666,53.333,169.334,53.333,168,56z M168,49c1.334,2.667,2.666,2.667,4,0C170.666,46.333,169.334,46.333,168,49z
										 M168,42c1.334,2.667,2.666,2.667,4,0C170.666,39.333,169.334,39.333,168,42z M168,36c1.334,2.667,2.666,2.667,4,0
										C170.666,33.333,169.334,33.333,168,36z M168,29c1.334,2.667,2.666,2.667,4,0C170.666,26.333,169.334,26.333,168,29z
										 M168,22c1.334,2.667,2.666,2.667,4,0C170.666,19.333,169.334,19.333,168,22z M168,15c1.334,2.667,2.666,2.667,4,0
										C170.666,12.333,169.334,12.333,168,15z M168,9c1.334,2.667,2.666,2.667,4,0C170.666,6.333,169.334,6.333,168,9z M162,237
										c1.334,2.667,2.667,2.667,4,0C164.667,234.333,163.334,234.333,162,237z M162,230c1.334,2.667,2.667,2.667,4,0
										C164.667,227.333,163.334,227.333,162,230z M162,224c1.334,2.667,2.667,2.667,4,0C164.667,221.333,163.334,221.333,162,224
										z M162,217c1.334,2.667,2.667,2.667,4,0C164.667,214.333,163.334,214.333,162,217z M162,210c1.334,2.667,2.667,2.667,4,0
										C164.667,207.333,163.334,207.333,162,210z M162,204c1.334,2.667,2.667,2.667,4,0C164.667,201.333,163.334,201.333,162,204
										z M162,197c1.334,2.667,2.667,2.667,4,0C164.667,194.333,163.334,194.333,162,197z M162,190c1.334,2.667,2.667,2.667,4,0
										C164.667,187.333,163.334,187.333,162,190z M162,183c1.334,2.667,2.667,2.667,4,0C164.667,180.333,163.334,180.333,162,183
										z M162,177c1.334,2.667,2.667,2.667,4,0C164.667,174.333,163.334,174.333,162,177z M162,103c1.334,2.667,2.667,2.667,4,0
										C164.667,100.333,163.334,100.333,162,103z M162,96c1.334,2.667,2.667,2.667,4,0C164.667,93.333,163.334,93.333,162,96z
										 M162,89c1.334,2.667,2.667,2.667,4,0C164.667,86.333,163.334,86.333,162,89z M162,42c1.334,2.667,2.667,2.667,4,0
										C164.667,39.333,163.334,39.333,162,42z M162,36c1.334,2.667,2.667,2.667,4,0C164.667,33.333,163.334,33.333,162,36z
										 M162,29c1.334,2.667,2.667,2.667,4,0C164.667,26.333,163.334,26.333,162,29z M162,22c1.334,2.667,2.667,2.667,4,0
										C164.667,19.333,163.334,19.333,162,22z M162,15c1.334,2.667,2.667,2.667,4,0C164.667,12.333,163.334,12.333,162,15z
										 M162,9c1.334,2.667,2.667,2.667,4,0C164.667,6.333,163.334,6.333,162,9z M156,251c1.334,2.667,2.666,2.667,4,0
										C158.666,248.333,157.334,248.333,156,251z M156,244c1.334,2.667,2.666,2.667,4,0C158.666,241.333,157.334,241.333,156,244
										z M156,237c1.334,2.667,2.666,2.667,4,0C158.666,234.333,157.334,234.333,156,237z M156,230c1.334,2.667,2.666,2.667,4,0
										C158.666,227.333,157.334,227.333,156,230z M156,224c1.334,2.667,2.666,2.667,4,0C158.666,221.333,157.334,221.333,156,224
										z M156,217c1.334,2.667,2.666,2.667,4,0C158.666,214.333,157.334,214.333,156,217z M156,210c1.334,2.667,2.666,2.667,4,0
										C158.666,207.333,157.334,207.333,156,210z M156,204c1.334,2.667,2.666,2.667,4,0C158.666,201.333,157.334,201.333,156,204
										z M156,197c1.334,2.667,2.666,2.667,4,0C158.666,194.333,157.334,194.333,156,197z M156,190c1.334,2.667,2.666,2.667,4,0
										C158.666,187.333,157.334,187.333,156,190z M156,183c1.334,2.667,2.666,2.667,4,0C158.666,180.333,157.334,180.333,156,183
										z M156,177c1.334,2.667,2.666,2.667,4,0C158.666,174.333,157.334,174.333,156,177z M156,103c1.334,2.667,2.666,2.667,4,0
										C158.666,100.333,157.334,100.333,156,103z M156,96c1.334,2.667,2.666,2.667,4,0C158.666,93.333,157.334,93.333,156,96z
										 M156,89c1.334,2.667,2.666,2.667,4,0C158.666,86.333,157.334,86.333,156,89z M156,83c1.334,2.667,2.666,2.667,4,0
										C158.666,80.333,157.334,80.333,156,83z M156,62c1.334,2.667,2.666,2.667,4,0C158.666,59.333,157.334,59.333,156,62z
										 M156,56c1.334,2.667,2.666,2.667,4,0C158.666,53.333,157.334,53.333,156,56z M156,22c1.334,2.667,2.666,2.667,4,0
										C158.666,19.333,157.334,19.333,156,22z M156,15c1.334,2.667,2.666,2.667,4,0C158.666,12.333,157.334,12.333,156,15z
										 M156,9c1.334,2.667,2.666,2.667,4,0C158.666,6.333,157.334,6.333,156,9z M148,251c1.334,2.667,2.666,2.667,4,0
										C150.666,248.333,149.334,248.333,148,251z M148,244c1.334,2.667,2.666,2.667,4,0C150.666,241.333,149.334,241.333,148,244
										z M148,237c1.334,2.667,2.666,2.667,4,0C150.666,234.333,149.334,234.333,148,237z M148,230c1.334,2.667,2.666,2.667,4,0
										C150.666,227.333,149.334,227.333,148,230z M148,224c1.334,2.667,2.666,2.667,4,0C150.666,221.333,149.334,221.333,148,224
										z M148,217c1.334,2.667,2.666,2.667,4,0C150.666,214.333,149.334,214.333,148,217z M148,210c1.334,2.667,2.666,2.667,4,0
										C150.666,207.333,149.334,207.333,148,210z M148,204c1.334,2.667,2.666,2.667,4,0C150.666,201.333,149.334,201.333,148,204
										z M148,197c1.334,2.667,2.666,2.667,4,0C150.666,194.333,149.334,194.333,148,197z M148,190c1.334,2.667,2.666,2.667,4,0
										C150.666,187.333,149.334,187.333,148,190z M148,183c1.334,2.667,2.666,2.667,4,0C150.666,180.333,149.334,180.333,148,183
										z M148,177c1.334,2.667,2.666,2.667,4,0C150.666,174.333,149.334,174.333,148,177z M148,170c1.334,2.667,2.666,2.667,4,0
										C150.666,167.333,149.334,167.333,148,170z M148,103c1.334,2.667,2.666,2.667,4,0C150.666,100.333,149.334,100.333,148,103
										z M148,96c1.334,2.667,2.666,2.667,4,0C150.666,93.333,149.334,93.333,148,96z M148,89c1.334,2.667,2.666,2.667,4,0
										C150.666,86.333,149.334,86.333,148,89z M148,83c1.334,2.667,2.666,2.667,4,0C150.666,80.333,149.334,80.333,148,83z
										 M148,76c1.334,2.667,2.666,2.667,4,0C150.666,73.333,149.334,73.333,148,76z M148,69c1.334,2.667,2.666,2.667,4,0
										C150.666,66.333,149.334,66.333,148,69z M148,62c1.334,2.667,2.666,2.667,4,0C150.666,59.333,149.334,59.333,148,62z
										 M148,56c1.334,2.667,2.666,2.667,4,0C150.666,53.333,149.334,53.333,148,56z M148,49c1.334,2.667,2.666,2.667,4,0
										C150.666,46.333,149.334,46.333,148,49z M148,42c1.334,2.667,2.666,2.667,4,0C150.666,39.333,149.334,39.333,148,42z
										 M148,22c1.334,2.667,2.666,2.667,4,0C150.666,19.333,149.334,19.333,148,22z M148,15c1.334,2.667,2.666,2.667,4,0
										C150.666,12.333,149.334,12.333,148,15z M141,271c1.333,2.667,2.666,2.667,4,0C143.666,268.333,142.333,268.333,141,271z
										 M141,264c1.333,2.667,2.666,2.667,4,0C143.666,261.333,142.333,261.333,141,264z M141,257c1.333,2.667,2.666,2.667,4,0
										C143.666,254.333,142.333,254.333,141,257z M141,251c1.333,2.667,2.666,2.667,4,0C143.666,248.333,142.333,248.333,141,251
										z M141,244c1.333,2.667,2.666,2.667,4,0C143.666,241.333,142.333,241.333,141,244z M141,237c1.333,2.667,2.666,2.667,4,0
										C143.666,234.333,142.333,234.333,141,237z M141,230c1.333,2.667,2.666,2.667,4,0C143.666,227.333,142.333,227.333,141,230
										z M141,224c1.333,2.667,2.666,2.667,4,0C143.666,221.333,142.333,221.333,141,224z M141,217c1.333,2.667,2.666,2.667,4,0
										C143.666,214.333,142.333,214.333,141,217z M141,210c1.333,2.667,2.666,2.667,4,0C143.666,207.333,142.333,207.333,141,210
										z M141,204c1.333,2.667,2.666,2.667,4,0C143.666,201.333,142.333,201.333,141,204z M141,197c1.333,2.667,2.666,2.667,4,0
										C143.666,194.333,142.333,194.333,141,197z M141,190c1.333,2.667,2.666,2.667,4,0C143.666,187.333,142.333,187.333,141,190
										z M141,183c1.333,2.667,2.666,2.667,4,0C143.666,180.333,142.333,180.333,141,183z M141,177c1.333,2.667,2.666,2.667,4,0
										C143.666,174.333,142.333,174.333,141,177z M141,170c1.333,2.667,2.666,2.667,4,0C143.666,167.333,142.333,167.333,141,170
										z M141,150c1.333,2.667,2.666,2.667,4,0C143.666,147.333,142.333,147.333,141,150z M141,123c1.333,2.667,2.666,2.667,4,0
										C143.666,120.333,142.333,120.333,141,123z M141,116c1.333,2.667,2.666,2.667,4,0C143.666,113.333,142.333,113.333,141,116
										z M141,110c1.333,2.667,2.666,2.667,4,0C143.666,107.333,142.333,107.333,141,110z M141,103c1.333,2.667,2.666,2.667,4,0
										C143.666,100.333,142.333,100.333,141,103z M141,96c1.333,2.667,2.666,2.667,4,0C143.666,93.333,142.333,93.333,141,96z
										 M141,89c1.333,2.667,2.666,2.667,4,0C143.666,86.333,142.333,86.333,141,89z M141,83c1.333,2.667,2.666,2.667,4,0
										C143.666,80.333,142.333,80.333,141,83z M141,76c1.333,2.667,2.666,2.667,4,0C143.666,73.333,142.333,73.333,141,76z
										 M141,69c1.333,2.667,2.666,2.667,4,0C143.666,66.333,142.333,66.333,141,69z M141,62c1.333,2.667,2.666,2.667,4,0
										C143.666,59.333,142.333,59.333,141,62z M141,56c1.333,2.667,2.666,2.667,4,0C143.666,53.333,142.333,53.333,141,56z
										 M141,49c1.333,2.667,2.666,2.667,4,0C143.666,46.333,142.333,46.333,141,49z M141,42c1.333,2.667,2.666,2.667,4,0
										C143.666,39.333,142.333,39.333,141,42z M141,22c1.333,2.667,2.666,2.667,4,0C143.666,19.333,142.333,19.333,141,22z
										 M141,15c1.333,2.667,2.666,2.667,4,0C143.666,12.333,142.333,12.333,141,15z M134,278c1.334,2.667,2.666,2.667,4,0
										C136.666,275.333,135.334,275.333,134,278z M134,271c1.334,2.667,2.666,2.667,4,0C136.666,268.333,135.334,268.333,134,271
										z M134,264c1.334,2.667,2.666,2.667,4,0C136.666,261.333,135.334,261.333,134,264z M134,257c1.334,2.667,2.666,2.667,4,0
										C136.666,254.333,135.334,254.333,134,257z M134,251c1.334,2.667,2.666,2.667,4,0C136.666,248.333,135.334,248.333,134,251
										z M134,244c1.334,2.667,2.666,2.667,4,0C136.666,241.333,135.334,241.333,134,244z M134,237c1.334,2.667,2.666,2.667,4,0
										C136.666,234.333,135.334,234.333,134,237z M134,230c1.334,2.667,2.666,2.667,4,0C136.666,227.333,135.334,227.333,134,230
										z M134,224c1.334,2.667,2.666,2.667,4,0C136.666,221.333,135.334,221.333,134,224z M134,217c1.334,2.667,2.666,2.667,4,0
										C136.666,214.333,135.334,214.333,134,217z M134,210c1.334,2.667,2.666,2.667,4,0C136.666,207.333,135.334,207.333,134,210
										z M134,204c1.334,2.667,2.666,2.667,4,0C136.666,201.333,135.334,201.333,134,204z M134,197c1.334,2.667,2.666,2.667,4,0
										C136.666,194.333,135.334,194.333,134,197z M134,190c1.334,2.667,2.666,2.667,4,0C136.666,187.333,135.334,187.333,134,190
										z M134,183c1.334,2.667,2.666,2.667,4,0C136.666,180.333,135.334,180.333,134,183z M134,177c1.334,2.667,2.666,2.667,4,0
										C136.666,174.333,135.334,174.333,134,177z M134,170c1.334,2.667,2.666,2.667,4,0C136.666,167.333,135.334,167.333,134,170
										z M134,150c1.334,2.667,2.666,2.667,4,0C136.666,147.333,135.334,147.333,134,150z M134,123c1.334,2.667,2.666,2.667,4,0
										C136.666,120.333,135.334,120.333,134,123z M134,116c1.334,2.667,2.666,2.667,4,0C136.666,113.333,135.334,113.333,134,116
										z M134,110c1.334,2.667,2.666,2.667,4,0C136.666,107.333,135.334,107.333,134,110z M134,103c1.334,2.667,2.666,2.667,4,0
										C136.666,100.333,135.334,100.333,134,103z M134,96c1.334,2.667,2.666,2.667,4,0C136.666,93.333,135.334,93.333,134,96z
										 M134,89c1.334,2.667,2.666,2.667,4,0C136.666,86.333,135.334,86.333,134,89z M134,83c1.334,2.667,2.666,2.667,4,0
										C136.666,80.333,135.334,80.333,134,83z M134,76c1.334,2.667,2.666,2.667,4,0C136.666,73.333,135.334,73.333,134,76z
										 M134,69c1.334,2.667,2.666,2.667,4,0C136.666,66.333,135.334,66.333,134,69z M134,62c1.334,2.667,2.666,2.667,4,0
										C136.666,59.333,135.334,59.333,134,62z M134,56c1.334,2.667,2.666,2.667,4,0C136.666,53.333,135.334,53.333,134,56z
										 M134,49c1.334,2.667,2.666,2.667,4,0C136.666,46.333,135.334,46.333,134,49z M134,42c1.334,2.667,2.666,2.667,4,0
										C136.666,39.333,135.334,39.333,134,42z M134,36c1.334,2.667,2.666,2.667,4,0C136.666,33.333,135.334,33.333,134,36z
										 M134,29c1.334,2.667,2.666,2.667,4,0C136.666,26.333,135.334,26.333,134,29z M134,22c1.334,2.667,2.666,2.667,4,0
										C136.666,19.333,135.334,19.333,134,22z M134,15c1.334,2.667,2.666,2.667,4,0C136.666,12.333,135.334,12.333,134,15z
										 M129,224c1.334,2.667,2.667,2.667,4,0C131.667,221.333,130.334,221.333,129,224z M129,217c1.334,2.667,2.667,2.667,4,0
										C131.667,214.333,130.334,214.333,129,217z M129,210c1.334,2.667,2.667,2.667,4,0C131.667,207.333,130.334,207.333,129,210
										z M129,204c1.334,2.667,2.667,2.667,4,0C131.667,201.333,130.334,201.333,129,204z M129,197c1.334,2.667,2.667,2.667,4,0
										C131.667,194.333,130.334,194.333,129,197z M129,190c1.334,2.667,2.667,2.667,4,0C131.667,187.333,130.334,187.333,129,190
										z M129,183c1.334,2.667,2.667,2.667,4,0C131.667,180.333,130.334,180.333,129,183z M129,177c1.334,2.667,2.667,2.667,4,0
										C131.667,174.333,130.334,174.333,129,177z M129,170c1.334,2.667,2.667,2.667,4,0C131.667,167.333,130.334,167.333,129,170
										z M129,163c1.334,2.667,2.667,2.667,4,0C131.667,160.333,130.334,160.333,129,163z M129,157c1.334,2.667,2.667,2.667,4,0
										C131.667,154.333,130.334,154.333,129,157z M129,143c1.334,2.667,2.667,2.667,4,0C131.667,140.333,130.334,140.333,129,143
										z M129,136c1.334,2.667,2.667,2.667,4,0C131.667,133.333,130.334,133.333,129,136z M129,130c1.334,2.667,2.667,2.667,4,0
										C131.667,127.333,130.334,127.333,129,130z M129,123c1.334,2.667,2.667,2.667,4,0C131.667,120.333,130.334,120.333,129,123
										z M129,116c1.334,2.667,2.667,2.667,4,0C131.667,113.333,130.334,113.333,129,116z M129,110c1.334,2.667,2.667,2.667,4,0
										C131.667,107.333,130.334,107.333,129,110z M129,103c1.334,2.667,2.667,2.667,4,0C131.667,100.333,130.334,100.333,129,103
										z M129,96c1.334,2.667,2.667,2.667,4,0C131.667,93.333,130.334,93.333,129,96z M129,62c1.334,2.667,2.667,2.667,4,0
										C131.667,59.333,130.334,59.333,129,62z M129,56c1.334,2.667,2.667,2.667,4,0C131.667,53.333,130.334,53.333,129,56z
										 M129,49c1.334,2.667,2.667,2.667,4,0C131.667,46.333,130.334,46.333,129,49z M129,42c1.334,2.667,2.667,2.667,4,0
										C131.667,39.333,130.334,39.333,129,42z M129,36c1.334,2.667,2.667,2.667,4,0C131.667,33.333,130.334,33.333,129,36z
										 M129,29c1.334,2.667,2.667,2.667,4,0C131.667,26.333,130.334,26.333,129,29z M129,22c1.334,2.667,2.667,2.667,4,0
										C131.667,19.333,130.334,19.333,129,22z M129,15c1.334,2.667,2.667,2.667,4,0C131.667,12.333,130.334,12.333,129,15z
										 M121,197c1.333,2.667,2.666,2.667,4,0C123.666,194.333,122.333,194.333,121,197z M121,190c1.333,2.667,2.666,2.667,4,0
										C123.666,187.333,122.333,187.333,121,190z M121,183c1.333,2.667,2.666,2.667,4,0C123.666,180.333,122.333,180.333,121,183
										z M121,177c1.333,2.667,2.666,2.667,4,0C123.666,174.333,122.333,174.333,121,177z M121,170c1.333,2.667,2.666,2.667,4,0
										C123.666,167.333,122.333,167.333,121,170z M121,163c1.333,2.667,2.666,2.667,4,0C123.666,160.333,122.333,160.333,121,163
										z M121,157c1.333,2.667,2.666,2.667,4,0C123.666,154.333,122.333,154.333,121,157z M121,150c1.333,2.667,2.666,2.667,4,0
										C123.666,147.333,122.333,147.333,121,150z M121,130c1.333,2.667,2.666,2.667,4,0C123.666,127.333,122.333,127.333,121,130
										z M121,123c1.333,2.667,2.666,2.667,4,0C123.666,120.333,122.333,120.333,121,123z M121,116c1.333,2.667,2.666,2.667,4,0
										C123.666,113.333,122.333,113.333,121,116z M121,110c1.333,2.667,2.666,2.667,4,0C123.666,107.333,122.333,107.333,121,110
										z M121,103c1.333,2.667,2.666,2.667,4,0C123.666,100.333,122.333,100.333,121,103z M121,96c1.333,2.667,2.666,2.667,4,0
										C123.666,93.333,122.333,93.333,121,96z M121,62c1.333,2.667,2.666,2.667,4,0C123.666,59.333,122.333,59.333,121,62z
										 M121,56c1.333,2.667,2.666,2.667,4,0C123.666,53.333,122.333,53.333,121,56z M121,49c1.333,2.667,2.666,2.667,4,0
										C123.666,46.333,122.333,46.333,121,49z M121,42c1.333,2.667,2.666,2.667,4,0C123.666,39.333,122.333,39.333,121,42z
										 M121,36c1.333,2.667,2.666,2.667,4,0C123.666,33.333,122.333,33.333,121,36z M121,29c1.333,2.667,2.666,2.667,4,0
										C123.666,26.333,122.333,26.333,121,29z M121,22c1.333,2.667,2.666,2.667,4,0C123.666,19.333,122.333,19.333,121,22z
										 M121,15c1.333,2.667,2.666,2.667,4,0C123.666,12.333,122.333,12.333,121,15z M114,157c1.333,2.667,2.667,2.667,4,0
										C116.667,154.333,115.333,154.333,114,157z M114,150c1.333,2.667,2.667,2.667,4,0C116.667,147.333,115.333,147.333,114,150
										z M114,130c1.333,2.667,2.667,2.667,4,0C116.667,127.333,115.333,127.333,114,130z M114,123c1.333,2.667,2.667,2.667,4,0
										C116.667,120.333,115.333,120.333,114,123z M114,116c1.333,2.667,2.667,2.667,4,0C116.667,113.333,115.333,113.333,114,116
										z M114,110c1.333,2.667,2.667,2.667,4,0C116.667,107.333,115.333,107.333,114,110z M114,103c1.333,2.667,2.667,2.667,4,0
										C116.667,100.333,115.333,100.333,114,103z M114,96c1.333,2.667,2.667,2.667,4,0C116.667,93.333,115.333,93.333,114,96z
										 M114,89c1.333,2.667,2.667,2.667,4,0C116.667,86.333,115.333,86.333,114,89z M114,62c1.333,2.667,2.667,2.667,4,0
										C116.667,59.333,115.333,59.333,114,62z M114,56c1.333,2.667,2.667,2.667,4,0C116.667,53.333,115.333,53.333,114,56z
										 M114,49c1.333,2.667,2.667,2.667,4,0C116.667,46.333,115.333,46.333,114,49z M114,42c1.333,2.667,2.667,2.667,4,0
										C116.667,39.333,115.333,39.333,114,42z M114,36c1.333,2.667,2.667,2.667,4,0C116.667,33.333,115.333,33.333,114,36z
										 M114,29c1.333,2.667,2.667,2.667,4,0C116.667,26.333,115.333,26.333,114,29z M114,22c1.333,2.667,2.667,2.667,4,0
										C116.667,19.333,115.333,19.333,114,22z M114,15c1.333,2.667,2.667,2.667,4,0C116.667,12.333,115.333,12.333,114,15z
										 M108,157c1.334,2.667,2.666,2.667,4,0C110.666,154.333,109.334,154.333,108,157z M108,150c1.334,2.667,2.666,2.667,4,0
										C110.666,147.333,109.334,147.333,108,150z M108,130c1.334,2.667,2.666,2.667,4,0C110.666,127.333,109.334,127.333,108,130
										z M108,123c1.334,2.667,2.666,2.667,4,0C110.666,120.333,109.334,120.333,108,123z M108,116c1.334,2.667,2.666,2.667,4,0
										C110.666,113.333,109.334,113.333,108,116z M108,110c1.334,2.667,2.666,2.667,4,0C110.666,107.333,109.334,107.333,108,110
										z M108,103c1.334,2.667,2.666,2.667,4,0C110.666,100.333,109.334,100.333,108,103z M108,96c1.334,2.667,2.666,2.667,4,0
										C110.666,93.333,109.334,93.333,108,96z M108,89c1.334,2.667,2.666,2.667,4,0C110.666,86.333,109.334,86.333,108,89z
										 M108,83c1.334,2.667,2.666,2.667,4,0C110.666,80.333,109.334,80.333,108,83z M108,76c1.334,2.667,2.666,2.667,4,0
										C110.666,73.333,109.334,73.333,108,76z M108,69c1.334,2.667,2.666,2.667,4,0C110.666,66.333,109.334,66.333,108,69z
										 M108,62c1.334,2.667,2.666,2.667,4,0C110.666,59.333,109.334,59.333,108,62z M108,56c1.334,2.667,2.666,2.667,4,0
										C110.666,53.333,109.334,53.333,108,56z M108,49c1.334,2.667,2.666,2.667,4,0C110.666,46.333,109.334,46.333,108,49z
										 M108,42c1.334,2.667,2.666,2.667,4,0C110.666,39.333,109.334,39.333,108,42z M108,36c1.334,2.667,2.666,2.667,4,0
										C110.666,33.333,109.334,33.333,108,36z M108,22c1.334,2.667,2.666,2.667,4,0C110.666,19.333,109.334,19.333,108,22z
										 M108,15c1.334,2.667,2.666,2.667,4,0C110.666,12.333,109.334,12.333,108,15z M102,150c1.334,2.667,2.667,2.667,4,0
										C104.667,147.333,103.334,147.333,102,150z M102,143c1.334,2.667,2.667,2.667,4,0C104.667,140.333,103.334,140.333,102,143
										z M102,136c1.334,2.667,2.667,2.667,4,0C104.667,133.333,103.334,133.333,102,136z M102,130c1.334,2.667,2.667,2.667,4,0
										C104.667,127.333,103.334,127.333,102,130z M102,123c1.334,2.667,2.667,2.667,4,0C104.667,120.333,103.334,120.333,102,123
										z M102,116c1.334,2.667,2.667,2.667,4,0C104.667,113.333,103.334,113.333,102,116z M102,110c1.334,2.667,2.667,2.667,4,0
										C104.667,107.333,103.334,107.333,102,110z M102,103c1.334,2.667,2.667,2.667,4,0C104.667,100.333,103.334,100.333,102,103
										z M102,96c1.334,2.667,2.667,2.667,4,0C104.667,93.333,103.334,93.333,102,96z M102,89c1.334,2.667,2.667,2.667,4,0
										C104.667,86.333,103.334,86.333,102,89z M102,83c1.334,2.667,2.667,2.667,4,0C104.667,80.333,103.334,80.333,102,83z
										 M102,76c1.334,2.667,2.667,2.667,4,0C104.667,73.333,103.334,73.333,102,76z M102,69c1.334,2.667,2.667,2.667,4,0
										C104.667,66.333,103.334,66.333,102,69z M102,62c1.334,2.667,2.667,2.667,4,0C104.667,59.333,103.334,59.333,102,62z
										 M102,56c1.334,2.667,2.667,2.667,4,0C104.667,53.333,103.334,53.333,102,56z M102,49c1.334,2.667,2.667,2.667,4,0
										C104.667,46.333,103.334,46.333,102,49z M102,42c1.334,2.667,2.667,2.667,4,0C104.667,39.333,103.334,39.333,102,42z
										 M102,36c1.334,2.667,2.667,2.667,4,0C104.667,33.333,103.334,33.333,102,36z M94,150c1.333,2.667,2.666,2.667,4,0
										C96.666,147.333,95.333,147.333,94,150z M94,143c1.333,2.667,2.666,2.667,4,0C96.666,140.333,95.333,140.333,94,143z
										 M94,136c1.333,2.667,2.666,2.667,4,0C96.666,133.333,95.333,133.333,94,136z M94,130c1.333,2.667,2.666,2.667,4,0
										C96.666,127.333,95.333,127.333,94,130z M94,123c1.333,2.667,2.666,2.667,4,0C96.666,120.333,95.333,120.333,94,123z
										 M94,116c1.333,2.667,2.666,2.667,4,0C96.666,113.333,95.333,113.333,94,116z M94,110c1.333,2.667,2.666,2.667,4,0
										C96.666,107.333,95.333,107.333,94,110z M94,103c1.333,2.667,2.666,2.667,4,0C96.666,100.333,95.333,100.333,94,103z
										 M94,96c1.333,2.667,2.666,2.667,4,0C96.666,93.333,95.333,93.333,94,96z M94,89c1.333,2.667,2.666,2.667,4,0
										C96.666,86.333,95.333,86.333,94,89z M94,83c1.333,2.667,2.666,2.667,4,0C96.666,80.333,95.333,80.333,94,83z M94,76
										c1.333,2.667,2.666,2.667,4,0C96.666,73.333,95.333,73.333,94,76z M94,69c1.333,2.667,2.666,2.667,4,0
										C96.666,66.333,95.333,66.333,94,69z M94,62c1.333,2.667,2.666,2.667,4,0C96.666,59.333,95.333,59.333,94,62z M94,56
										c1.333,2.667,2.666,2.667,4,0C96.666,53.333,95.333,53.333,94,56z M94,49c1.333,2.667,2.666,2.667,4,0
										C96.666,46.333,95.333,46.333,94,49z M87,143c1.334,2.667,2.666,2.667,4,0C89.666,140.333,88.334,140.333,87,143z M87,136
										c1.334,2.667,2.666,2.667,4,0C89.666,133.333,88.334,133.333,87,136z M87,130c1.334,2.667,2.666,2.667,4,0
										C89.666,127.333,88.334,127.333,87,130z M87,123c1.334,2.667,2.666,2.667,4,0C89.666,120.333,88.334,120.333,87,123z
										 M87,116c1.334,2.667,2.666,2.667,4,0C89.666,113.333,88.334,113.333,87,116z M87,110c1.334,2.667,2.666,2.667,4,0
										C89.666,107.333,88.334,107.333,87,110z M87,103c1.334,2.667,2.666,2.667,4,0C89.666,100.333,88.334,100.333,87,103z
										 M87,96c1.334,2.667,2.666,2.667,4,0C89.666,93.333,88.334,93.333,87,96z M87,89c1.334,2.667,2.666,2.667,4,0
										C89.666,86.333,88.334,86.333,87,89z M87,83c1.334,2.667,2.666,2.667,4,0C89.666,80.333,88.334,80.333,87,83z M87,76
										c1.334,2.667,2.666,2.667,4,0C89.666,73.333,88.334,73.333,87,76z M87,69c1.334,2.667,2.666,2.667,4,0
										C89.666,66.333,88.334,66.333,87,69z M87,62c1.334,2.667,2.666,2.667,4,0C89.666,59.333,88.334,59.333,87,62z M87,56
										c1.334,2.667,2.666,2.667,4,0C89.666,53.333,88.334,53.333,87,56z M87,49c1.334,2.667,2.666,2.667,4,0
										C89.666,46.333,88.334,46.333,87,49z M87,42c1.334,2.667,2.666,2.667,4,0C89.666,39.333,88.334,39.333,87,42z M87,36
										c1.334,2.667,2.666,2.667,4,0C89.666,33.333,88.334,33.333,87,36z M81,143c1.333,2.667,2.666,2.667,4,0
										C83.666,140.333,82.333,140.333,81,143z M81,136c1.333,2.667,2.666,2.667,4,0C83.666,133.333,82.333,133.333,81,136z
										 M81,130c1.333,2.667,2.666,2.667,4,0C83.666,127.333,82.333,127.333,81,130z M81,123c1.333,2.667,2.666,2.667,4,0
										C83.666,120.333,82.333,120.333,81,123z M81,116c1.333,2.667,2.666,2.667,4,0C83.666,113.333,82.333,113.333,81,116z
										 M81,110c1.333,2.667,2.666,2.667,4,0C83.666,107.333,82.333,107.333,81,110z M81,103c1.333,2.667,2.666,2.667,4,0
										C83.666,100.333,82.333,100.333,81,103z M81,96c1.333,2.667,2.666,2.667,4,0C83.666,93.333,82.333,93.333,81,96z M81,89
										c1.333,2.667,2.666,2.667,4,0C83.666,86.333,82.333,86.333,81,89z M81,83c1.333,2.667,2.666,2.667,4,0
										C83.666,80.333,82.333,80.333,81,83z M81,76c1.333,2.667,2.666,2.667,4,0C83.666,73.333,82.333,73.333,81,76z M81,69
										c1.333,2.667,2.666,2.667,4,0C83.666,66.333,82.333,66.333,81,69z M81,62c1.333,2.667,2.666,2.667,4,0
										C83.666,59.333,82.333,59.333,81,62z M81,56c1.333,2.667,2.666,2.667,4,0C83.666,53.333,82.333,53.333,81,56z M81,49
										c1.333,2.667,2.666,2.667,4,0C83.666,46.333,82.333,46.333,81,49z M81,42c1.333,2.667,2.666,2.667,4,0
										C83.666,39.333,82.333,39.333,81,42z M81,36c1.333,2.667,2.666,2.667,4,0C83.666,33.333,82.333,33.333,81,36z M81,29
										c1.333,2.667,2.666,2.667,4,0C83.666,26.333,82.333,26.333,81,29z M74,130c1.333,2.667,2.666,2.667,4,0
										C76.666,127.333,75.333,127.333,74,130z M74,123c1.333,2.667,2.666,2.667,4,0C76.666,120.333,75.333,120.333,74,123z
										 M74,116c1.333,2.667,2.666,2.667,4,0C76.666,113.333,75.333,113.333,74,116z M74,110c1.333,2.667,2.666,2.667,4,0
										C76.666,107.333,75.333,107.333,74,110z M74,103c1.333,2.667,2.666,2.667,4,0C76.666,100.333,75.333,100.333,74,103z
										 M74,96c1.333,2.667,2.666,2.667,4,0C76.666,93.333,75.333,93.333,74,96z M74,89c1.333,2.667,2.666,2.667,4,0
										C76.666,86.333,75.333,86.333,74,89z M74,83c1.333,2.667,2.666,2.667,4,0C76.666,80.333,75.333,80.333,74,83z M74,76
										c1.333,2.667,2.666,2.667,4,0C76.666,73.333,75.333,73.333,74,76z M74,69c1.333,2.667,2.666,2.667,4,0
										C76.666,66.333,75.333,66.333,74,69z M74,62c1.333,2.667,2.666,2.667,4,0C76.666,59.333,75.333,59.333,74,62z M74,56
										c1.333,2.667,2.666,2.667,4,0C76.666,53.333,75.333,53.333,74,56z M74,49c1.333,2.667,2.666,2.667,4,0
										C76.666,46.333,75.333,46.333,74,49z M74,42c1.333,2.667,2.666,2.667,4,0C76.666,39.333,75.333,39.333,74,42z M74,36
										c1.333,2.667,2.666,2.667,4,0C76.666,33.333,75.333,33.333,74,36z M74,29c1.333,2.667,2.666,2.667,4,0
										C76.666,26.333,75.333,26.333,74,29z M67,123c1.334,2.667,2.667,2.667,4,0C69.667,120.333,68.334,120.333,67,123z M67,116
										c1.334,2.667,2.667,2.667,4,0C69.667,113.333,68.334,113.333,67,116z M67,110c1.334,2.667,2.667,2.667,4,0
										C69.667,107.333,68.334,107.333,67,110z M67,103c1.334,2.667,2.667,2.667,4,0C69.667,100.333,68.334,100.333,67,103z
										 M67,96c1.334,2.667,2.667,2.667,4,0C69.667,93.333,68.334,93.333,67,96z M67,89c1.334,2.667,2.667,2.667,4,0
										C69.667,86.333,68.334,86.333,67,89z M67,83c1.334,2.667,2.667,2.667,4,0C69.667,80.333,68.334,80.333,67,83z M67,76
										c1.334,2.667,2.667,2.667,4,0C69.667,73.333,68.334,73.333,67,76z M67,69c1.334,2.667,2.667,2.667,4,0
										C69.667,66.333,68.334,66.333,67,69z M67,62c1.334,2.667,2.667,2.667,4,0C69.667,59.333,68.334,59.333,67,62z M67,56
										c1.334,2.667,2.667,2.667,4,0C69.667,53.333,68.334,53.333,67,56z M67,42c1.334,2.667,2.667,2.667,4,0
										C69.667,39.333,68.334,39.333,67,42z M67,36c1.334,2.667,2.667,2.667,4,0C69.667,33.333,68.334,33.333,67,36z M67,29
										c1.334,2.667,2.667,2.667,4,0C69.667,26.333,68.334,26.333,67,29z M61,96c1.333,2.667,2.666,2.667,4,0
										C63.666,93.333,62.333,93.333,61,96z M61,89c1.333,2.667,2.666,2.667,4,0C63.666,86.333,62.333,86.333,61,89z M61,83
										c1.333,2.667,2.666,2.667,4,0C63.666,80.333,62.333,80.333,61,83z M61,76c1.333,2.667,2.666,2.667,4,0
										C63.666,73.333,62.333,73.333,61,76z M61,69c1.333,2.667,2.666,2.667,4,0C63.666,66.333,62.333,66.333,61,69z M61,62
										c1.333,2.667,2.666,2.667,4,0C63.666,59.333,62.333,59.333,61,62z M61,56c1.333,2.667,2.666,2.667,4,0
										C63.666,53.333,62.333,53.333,61,56z M61,49c1.333,2.667,2.666,2.667,4,0C63.666,46.333,62.333,46.333,61,49z M61,42
										c1.333,2.667,2.666,2.667,4,0C63.666,39.333,62.333,39.333,61,42z M54,89c1.334,2.667,2.667,2.667,4,0
										C56.667,86.333,55.334,86.333,54,89z M54,83c1.334,2.667,2.667,2.667,4,0C56.667,80.333,55.334,80.333,54,83z M54,76
										c1.334,2.667,2.667,2.667,4,0C56.667,73.333,55.334,73.333,54,76z M54,69c1.334,2.667,2.667,2.667,4,0
										C56.667,66.333,55.334,66.333,54,69z M54,62c1.334,2.667,2.667,2.667,4,0C56.667,59.333,55.334,59.333,54,62z M54,56
										c1.334,2.667,2.667,2.667,4,0C56.667,53.333,55.334,53.333,54,56z M54,49c1.334,2.667,2.667,2.667,4,0
										C56.667,46.333,55.334,46.333,54,49z M47,83c1.334,2.667,2.667,2.667,4,0C49.667,80.333,48.334,80.333,47,83z M47,76
										c1.334,2.667,2.667,2.667,4,0C49.667,73.333,48.334,73.333,47,76z M47,69c1.334,2.667,2.667,2.667,4,0
										C49.667,66.333,48.334,66.333,47,69z M47,62c1.334,2.667,2.667,2.667,4,0C49.667,59.333,48.334,59.333,47,62z M47,56
										c1.334,2.667,2.667,2.667,4,0C49.667,53.333,48.334,53.333,47,56z M40,76c1.333,2.667,2.666,2.667,4,0
										C42.666,73.333,41.333,73.333,40,76z M40,69c1.333,2.667,2.666,2.667,4,0C42.666,66.333,41.333,66.333,40,69z M40,62
										c1.333,2.667,2.666,2.667,4,0C42.666,59.333,41.333,59.333,40,62z M40,56c1.333,2.667,2.666,2.667,4,0
										C42.666,53.333,41.333,53.333,40,56z M34,76c1.333,2.667,2.666,2.667,4,0C36.666,73.333,35.333,73.333,34,76z M34,69
										c1.333,2.667,2.666,2.667,4,0C36.666,66.333,35.333,66.333,34,69z M34,62c1.333,2.667,2.666,2.667,4,0
										C36.666,59.333,35.333,59.333,34,62z M34,56c1.333,2.667,2.666,2.667,4,0C36.666,53.333,35.333,53.333,34,56z M34,49
										c1.333,2.667,2.666,2.667,4,0C36.666,46.333,35.333,46.333,34,49z M27,69c1.334,2.667,2.666,2.667,4,0
										C29.666,66.333,28.334,66.333,27,69z M27,62c1.334,2.667,2.666,2.667,4,0C29.666,59.333,28.334,59.333,27,62z M27,56
										c1.334,2.667,2.666,2.667,4,0C29.666,53.333,28.334,53.333,27,56z M27,49c1.334,2.667,2.666,2.667,4,0
										C29.666,46.333,28.334,46.333,27,49z M20,83c1.333,2.667,2.666,2.667,4,0C22.666,80.333,21.333,80.333,20,83z M20,76
										c1.333,2.667,2.666,2.667,4,0C22.666,73.333,21.333,73.333,20,76z M20,69c1.333,2.667,2.666,2.667,4,0
										C22.666,66.333,21.333,66.333,20,69z M20,62c1.333,2.667,2.666,2.667,4,0C22.666,59.333,21.333,59.333,20,62z M20,56
										c1.333,2.667,2.666,2.667,4,0C22.666,53.333,21.333,53.333,20,56z M20,49c1.333,2.667,2.666,2.667,4,0
										C22.666,46.333,21.333,46.333,20,49z M13,83c1.333,2.667,2.666,2.667,4,0C15.666,80.333,14.333,80.333,13,83z M13,76
										c1.333,2.667,2.666,2.667,4,0C15.666,73.333,14.333,73.333,13,76z M13,69c1.333,2.667,2.666,2.667,4,0
										C15.666,66.333,14.333,66.333,13,69z M13,62c1.333,2.667,2.666,2.667,4,0C15.666,59.333,14.333,59.333,13,62z M13,56
										c1.333,2.667,2.666,2.667,4,0C15.666,53.333,14.333,53.333,13,56z M13,49c1.333,2.667,2.666,2.667,4,0
										C15.666,46.333,14.333,46.333,13,49z M7,83c1.333,2.667,2.667,2.667,4,0C9.667,80.333,8.333,80.333,7,83z M7,76
										c1.333,2.667,2.667,2.667,4,0C9.667,73.333,8.333,73.333,7,76z M7,69c1.333,2.667,2.667,2.667,4,0
										C9.667,66.333,8.333,66.333,7,69z M7,62c1.333,2.667,2.667,2.667,4,0C9.667,59.333,8.333,59.333,7,62z M7,56
										c1.333,2.667,2.667,2.667,4,0C9.667,53.333,8.333,53.333,7,56z M7,49c1.333,2.667,2.667,2.667,4,0
										C9.667,46.333,8.333,46.333,7,49z M0,89c1.333,2.667,2.667,2.667,4,0C2.667,86.333,1.333,86.333,0,89z M0,76
										c1.333,2.667,2.667,2.667,4,0C2.667,73.333,1.333,73.333,0,76z M0,69c1.333,2.667,2.667,2.667,4,0
										C2.667,66.333,1.333,66.333,0,69z M0,62c1.333,2.667,2.667,2.667,4,0C2.667,59.333,1.333,59.333,0,62z M4,56
										c-1.333,2.667-2.667,2.667-4,0C1.333,53.333,2.667,53.333,4,56z"/>
								</defs>
								<clipPath id="SVGID_12_">
									<use xlink:href="#SVGID_11_"  overflow="visible"/>
								</clipPath>
								<g clip-path="url(#SVGID_12_)">
									<defs>
										<rect id="SVGID_13_" width="530" height="280"/>
									</defs>
									<clipPath id="SVGID_14_">
										<use xlink:href="#SVGID_13_"  overflow="visible"/>
									</clipPath>
									<rect x="-5" y="-5" clip-path="url(#SVGID_14_)" fill="#DCEFF9" width="540" height="290"/>
								</g>
							</g>
						</g>
					</g>
				</g>
			</g>
		</g>
	</g>
</g>
</svg>
